<svg xmlns="http://www.w3.org/2000/svg" width="32" height="32" viewBox="0 0 32 32" aria-hidden="true">
  <path fill="#322f21" d="m27.1 23.4q-.1 0-.1 0h-.2q0-.9-.1-2c-.1-2.3-.2-4.9-.4-6.3q0-.2-.2-.2-1-.1-2-.1l.1-.6c0-2.5 0-3.6 0-4.7-.1-.6-.1-1.2-.1-2.1q0-.2-.1-.2 0 0-.1 0 .7-.6 1.1-1.5c.2-.6.4-1.3.5-1.9q.1-.1 0-.2-.1 0-.2.1-.3.4-1.1.7-.3.1-.6.2-.3.1-.7.2-.6.3-1 .7-.1-.1-.1-.2 0-.1 0-.2c-.1-.2-.1-.3-.3-.5-.2-.2-.5-.2-.8-.1q0-.2 0-.3c.2.1.5.1 1 .1q.3 0 .6.1.3 0 .5 0 .1 0 .2 0 .1 0 .3 0c.1-.1.3-.2.3-.4 0-.1-.1-.3-.2-.4q-.1-.1-.3-.1c-.6-.2-1.3-.1-2 .1q.2-.2.4-.5c.4-.1.8-.1 1.2-.1q.1 0 .3 0c.5-.1 1.1-.1 1.5-.5q.2-.2.2-.4c0-.1-.1-.3-.2-.4q-.2 0-.4 0c-.7-.1-1.4.2-2 .6.4-.5.7-1.1.8-1.8.1-.1.1-.3 0-.5-.1-.3-.3-.4-.5-.4q-.2 0-.4.3c-.4.5-.4 1-.4 1.4 0 .3 0 .6 0 .8q-.2 1-1.1 1.7-.2-.4-.6-.5c-.2-.1-.5 0-.7.1.2-.5.1-1.1-.1-1.4q-.1-.1-.2-.1c-.4.3-.7.7-.8 1.2q-.2-.6-.6-1.1-.1 0-.1.1c-.1.4-.3.9-.3 1.3q0 .3.1.5-.3-.1-.6.1c-.2.1-.3.3-.3.5q-.1.2-.1.4-.1 0-.1-.1-.2-.3-.5-.5c.5-.5.9-1.3 1-1.9q0-.1 0-.1-.1 0-.1 0c-.4.2-.8.4-1.2.7q-.2.2-.4.5.1-.4 0-.7c-.1-.6-.5-1-.9-1.2q-.1 0-.1.1c-.3.5-.3 1.3 0 1.8q-.2 0-.4-.1c-.2-.2-.4-.4-.7-.5q.1-.6.1-1.3 0 0 .1 0 0 0-.1 0 .1-.5 0-.9 0 0 0-.1-.2-.6-.5-1.1 0-.1 0-.1-.1 0-.1.1c-.5.5-1 1.1-1.4 1.8-.3.8-.4 1.6-.2 2.2q-.1.2-.2.3c-.3.3-.3.7-.2 1q-.3.1-.5.4c-.2.2-.2.6-.1.9q.1.1.1.2.1.1.1.1 0 .1 0 .3.1.1.1.1-.1.1-.2.1l-.6-1.8q-.1-.2-.3-.4c.1-.2.2-.4.3-.5.2-.3.3-.5.4-.9 0-.8-.1-1.7-.5-2.3q0-.1 0-.1-.1 0-.1 0c-.9 1-1.1 2.3-.6 3.4q-.3-.2-.6-.4-.3-.1-.5-.2-.1-.1-.3-.2c-.4-.5-.4-1.1-.5-1.7q0-.3 0-.6c-.1-.6-.4-1.4-1-1.9q-.1 0-.1 0-.1.1-.1.1 0 .2 0 .3c-.1.9-.3 2 .1 2.8.2.3.6.6 1 .9q-.2 0-.3 0-.7 0-1.4.2-.7.3-1.3.9 0 .1 0 .2.1 0 .1 0 0 0 .1 0c0-.1.3 0 .4 0q.2 0 .2 0 .4-.1.8-.1.6-.2 1.2-.4c.5-.3.7-.3.8-.4q0 .1 0 0 .1.1.1.1.3.2.5.3c.6.2 1.1.5 1.3 1l.2.5c-.4-.3-1-.6-1.6-.7q-1.2-.3-2.1.3 0 0 0 .1 0 0 0 .1 1.1.8 2.3.8.3 0 .7-.1.1 0 .3-.1c.2-.1.4-.1.5-.1q0 .1 0 .1l.4.8c-.9.2-1.4.3-1.4.3q-.1 0-.1.1c-.2 3-.2 3.2-.1 5.7v1.2l.1.5c-1.5.1-2.4.2-2.4.2q-.1 0-.2.2v.3c-.2 1.8-.3 5.5-.4 8h-.2c-2 .3-2.3.6-2.3.9q0 .8 4.1 1.4c2.3.4 5.1.6 7.9.7v.4c-.2 2.4-.3 2.9-1.9 3.5l-.9.4c-.1 0-.2.2-.2.4q0 .2.2.2 2.5.2 4.9.2 2.4 0 4.7-.2.2 0 .2-.2c0-.2-.1-.4-.2-.4l-.9-.4c-1.7-.7-1.8-1.1-2.1-4 2.5 0 5-.3 7-.6q4-.6 4-1.4c0-.3-.3-.6-2.3-.9zm-3.1-21.5q0 0 .1 0 .1 0 .2.1.1 0 .1.1 0 .1-.1.2c-.3.3-.9.4-1.3.4q-.2 0-.3 0-.4 0-.7 0c.6-.4 1.2-.8 2-.8zm-2.2.3c.1-.3.1-.6.1-.9 0-.4 0-.8.3-1.2q.1-.2.2-.2c.1 0 .2.1.3.2 0 .1 0 .2 0 .4-.2.6-.5 1.2-.9 1.7zm-.7 1.7c.6-.1 1.4-.3 1.9-.2q.1.1.2.1.1.1.1.2 0 .1-.1.1-.2.1-.3 0-.3 0-.5 0-.3-.1-.7-.1-.6 0-.8 0 .1 0 .2-.1zm3.6 1.7q-.4 1-1.1 1.5-.7-.1-1.3-.2 0-.1 0-.2c.2-.2.4-.3.7-.4q.2-.1.6-.3.9-.6 1.5-1.5-.2.6-.4 1.1zm-1.7-.5q.4-.2.7-.3.3 0 .6-.1.3-.1.5-.2-.6.8-1.4 1.3-.3.1-.5.2c-.3.1-.5.2-.7.4q-.1 0-.1 0 .1-.3 0-.6.2-.4.9-.7zm-1.1 1.5q.1 0 .1.1 0 .2 0 .3-.1.6-.3.9c-.1.2-.4.3-.6.3q0-.3-.2-.5-.1-.2-.3-.3.1 0 .1 0 .3 0 .5-.2.1-.1.3-.2.1-.1.1-.2.1 0 .1 0 .1-.1.2-.2zm-3.9-.8q-.1-.3-.2-.7.1 0 .1 0 .1 0 .2 0 0 0 .1-.1.1 0 .2 0 0 .1.1.1-.2.4-.5.7zm.7-.5q.1 0 .1.1.1.2.1.4-.1.4-.2.8-.1 0-.1.1-.2 0-.3 0v-.1q-.1-.2-.2-.4.4-.4.6-.9zm-.5 1.7q.3 0 .5 0 .3.1.6.1c.3 0 .8 0 1.2-.3q0 .2-.1.3 0 .1 0 .1 0 0-.1.1-.1.1-.3.2c-.4.2-.8.4-1.3.5q-.4 0-.7-.1-.2-.1-.4-.3c-.1-.1-.1-.3 0-.5 0-.1.2-.1.4-.1q.1 0 .2 0zm-9.8.5c.3 0 .8-.2 1.6-.3q-.2.3-.2.7c0 .3.2.6.4.8.1.2.3.3.5.4q.3.1.6.2.1 0 .2 0 .2 0 .3 0 .1.1.2.2.3.1.6.1.1 0 .2 0 .3 0 .7-.2.4-.2.6-.4.4-.1 1-.3 1.4-.6q.2-.1.2-.3.1.2.3.4c.1.2.3.2.5.3q.3 0 .6.1.2 0 .3-.1.1 0 .3-.1 0 .3.1.5.1.1.2.2.1 0 .3.1.1 0 .3 0c.3-.1.7-.1.9-.3.4-.1.6-.4.9-.6q.1-.1.2-.2 0 0 .1 0c.3 0 .6-.2.8-.4.2-.3.3-.6.4-.8q.7.1 1.4.2c.1.8.1 1.4.1 2 0 1.1 0 2.2 0 4.7v.5c-6.1-.4-12-.2-15.4 0v-.5-1.2c-.1-2.5-.1-2.6 0-5.5zm12.3-2.8c.3 0 .5 0 .6.1.1.1.1.2.2.4q0 .1 0 .2.1.1.2.3 0 .1.1.2c0 .1.1.2 0 .4q-.1.1-.2.2-.1.1-.1.1-.1.1-.2.2-.1.1-.3.2 0-.2 0-.5.3-.3.3-.8.1-.2-.1-.3 0-.2 0-.4zm-.1.8c.1.3.1.7-.2 1-.3.3-.8.3-1.1.3q-.2 0-.4 0 0-.1 0-.1c.5-.4.9-1 .9-1.7q.3 0 .6.3.1.1.2.2zm-1.4-1.8c.2-.1.4-.2.7-.1.2 0 .3.2.5.5q.1.2.1.5 0 .2-.1.3-.3-.2-.7-.2 0-.1 0-.2 0-.2-.1-.4-.1 0-.1 0 0-.1-.1-.3zm0 .6q0 0 .1 0 .1 0 .1.2.1.2.1.4c0 .4-.1.9-.4 1.2q0-.1 0-.3c.1-.1.1-.3 0-.5q-.1-.2-.3-.3-.1-.2-.4-.2.3-.3.6-.4.1-.1.2-.1zm-1.7.3q.1-.2.1-.3.1 0 .1 0 0-.1.1-.2.2-.2.5-.4.1-.2.2-.2.1 0 .2.1.1.2.1.3-.1.1-.2.1-.4.2-.7.7-.1 0-.1 0-.1 0-.2.1-.1 0-.1 0-.1-.1-.2-.3zm.1.9q.1.3.2.6.1.3.2.6-.2 0-.4.1c-.1-.5-.1-.9 0-1.3zm-1.1-.9q.1-.3.3-.4.1-.1.3 0 .1 0 .2.1 0 .1 0 .2-.1.2 0 .5.2.2.2.6-.3.5-.4 1-.2-.1-.2-.1 0 0-.1-.1-.2-.1-.3-.2-.2-.3-.2-.6-.1-.5 0-1zm0 1.9q0 0 .1 0 .1 0 .2.1.1.1.2.2.1.1.3.3-.1.2 0 .5.1.3.4.4-.1.2-.3.4c-.3.1-.5.1-.8 0-.2-.1-.3-.1-.4-.2-.2-.1-.2-.3-.2-.5q-.1 0-.1 0 .1-.2.1-.5 0-.2-.1-.4c0-.1.1-.3.2-.4q.2-.1.4 0zm-1.1-2q.3.1.5.5c.1.2.2.4.3.7q.1.3.1.5-.2 0-.3.1-.2.1-.3.3-.1-.1-.3-.2 0-.1 0-.3c.1-.1.1-.4 0-.6-.1-.3-.3-.5-.5-.6q0-.3 0-.5.2-.1.5.1zm-1 3.3q0-.1 0-.1c.4 0 .7-.3.8-.6q.1-.1.2-.4.1.1.2.2.1.2.1.4 0 .3-.1.5-.1.2-.3.4c-.2.2-.6.4-1 .5.1-.2.2-.6.1-.9zm.7-2.2q.1.2.1.5-.1.2-.1.4 0 .3-.1.5c-.1.2-.3.4-.5.4 0-.3 0-.8-.1-1.2q0-.2-.1-.4c.3-.1.4-.4.5-.6q.3.1.3.4zm-1.8-1.9q.1 0 .1 0c.3.1.6.1.9.3q.2.1.2.4.1.2.1.5v.1c0 .2-.2.5-.5.6q-.2-.4-.6-.6c-.4-.3-.9-.4-1.4-.3q0-.2.1-.4 0-.2.2-.4c.2-.2.6-.3.9-.2zm-2.2 5q.2.1.5 0 0 .2.1.3-.2.1-.4 0-.2 0-.4-.2-.3-.1-.5-.3-.3-.3-.3-.6 0-.3.2-.6.1.2.3.3 0 .1 0 .2c0 .3.2.7.5.9zm.1-.3c-.2-.1-.4-.4-.3-.6q0-.1 0-.2c.1-.2.3-.3.4-.3q.1.1.1.3c.2.2.4.4.7.4q.2 0 .3-.1.1-.1.2-.1.1 0 .3 0 0 0 .1 0 .1 0 .2-.1.1.2.1.3-.7.3-1.4.4-.2.1-.5.1-.2-.1-.4-.1zm.8-2q0 0 0 .2 0 0 .1.1c.1.3.4.5.7.5q.3-.1.5-.4 0 .1 0 .1 0 0 .1 0-.1.2-.2.5 0 .1-.2.1h-.2q-.1 0-.2 0-.2.1-.3.1-.1.1-.2.1-.2 0-.3-.1-.4-.1-.4-.3q-.1-.1-.1-.4 0 0 0-.1-.1-.3 0-.5 0-.2.1-.3 0 .1.1.2.1 0 .1 0 0 .1.1.1zm2.1 1.4q0 0-.1.1c-.1.1-.2.2-.3.1q-.1 0-.1 0-.1-.1-.1-.3 0-.1 0-.2 0-.3.1-.5.1-.1 0-.1 0-.1-.1-.2 0 0 0-.1 0-.1 0-.1 0-.1 0-.1v-.1q.1 0 .1 0 0-.1-.1-.1 0-.1-.1-.1c-.4.2-.8.1-1-.1q-.2-.2-.3-.4-.1-.3-.1-.5 0-.1 0-.1.1 0 .1-.1c.4 0 .9.1 1.3.3q.3.3.6.6.1.2.1.5c.2.4.1.9.1 1.2q-.1.2-.1.3zm-2.2-3q-.1 0-.1 0c-.4.1-.7.3-.9.7q0 0 0 .1-.1-.2-.1-.4 0-.1.1-.3.1-.1.3-.3.2-.1.5-.2.2 0 .3 0 0 .2 0 .4zm-.8 1.1q0-.2.1-.3c.1-.2.3-.4.5-.5q0 .3.1.5-.1.1-.1.2-.3.1-.4.5 0 .2 0 .4-.1 0-.1 0 0-.1 0-.1-.2-.4-.1-.7zm.8 2.8q.8-.1 1.6-.5 0 .1.1.1.1 0 .2 0 .2 0 .4-.1-.1.1-.1.4-.1.1-.1.1-.2.2-.5.4-.4.2-.6.2-.4.1-.6-.1-.1 0-.2-.2-.1-.2-.1-.3zm.1-2.8q.1.2.2.3c.2.2.6.3 1 .3q-.1.1-.1.2-.2.1-.3.2-.2 0-.5-.3 0 0 0-.1 0-.1-.1-.3-.1-.1-.1-.1-.1 0-.1 0 0-.1 0-.2zm.7-3.5q-.4-.1-.7.1 0 .1-.1.1 0-.3.1-.6c.2-.2.5-.3.8-.3q-.1.3-.1.7zm-.1.2q0 .1 0 .2-.3-.1-.6-.1.1 0 .1 0 .3-.2.5-.1zm.2-1.1q-.5 0-.8.2.1-.2.1-.4 0 0 0-.1c.2-.2.3-.4.6-.4q.1.3.1.7zm-.6-.8q.1-.5.2-.9.2.4.3.8-.3.1-.5.3 0-.1 0-.2zm0-.8q-.1.4-.2.7 0 .2 0 .3-.1-.1-.3-.2.3-.4.7-.8zm-1.1 1.5q.1-.3.3-.6c.3 0 .5.2.5.4q0 .3-.1.5-.3-.2-.7-.2 0-.1 0-.1zm-.1.2c.2.1.6.2.8.3q-.1.4-.1.8-.2-.2-.6-.3-.2-.4-.1-.8zm-.2 1c.3 0 .6.1.8.3q-.2.1-.4.2-.1.1-.3.3-.2-.4-.1-.8zm-.1 1.4c.2-.3.4-.5.7-.7q.3-.2.6-.3c.3 0 .5.1.7.2q.2.1.3.2-.4 0-.8.3-.2.2-.3.4-.3-.1-.7.1-.2.2-.3.3-.1 0-.2 0 0-.2.2-.7zm-.7 2c-.1-.2-.1-.5.1-.7q.1-.2.4-.3 0 .1 0 .2c0 .2.1.5.3.7q0 .4.1.8.1.2.2.3-.2.2-.4.4-.2-.2-.3-.4-.1-.1-.1-.2-.1-.1-.1-.2 0-.1 0-.3-.1-.1-.1-.2 0-.1-.1-.1zm7.9 2.6q.1-.2.1-.4h.1q.2.0.5.1.1 0 .2-.1c.5 0 .9-.2 1.3-.4q.2-.1.3-.2.2.1.3.3c.1.1.1.2.1.4q-.1.1-.2.2c-.3.2-.5.4-.8.6-.2.1-.5.1-.8.2q-.3 0-.5 0-.2-.1-.3-.2-.1 0-.2-.1-.1-.1-.1-.4zm-12.4 15.6c0-2.4.1-6.7.4-8.8v-.1c1.3-.1 10.9-.9 20 0 .3 1.4.4 3.9.4 6.1.1 1 .1 1.9.2 2.6h-.1c-1 .3-8 1.7-20.9.2zm14.8 6.5.8.3c-2.8.2-5.9.2-9 0l.8-.3c1.8-.7 1.8-1.4 2.1-3.9v-.4q.6 0 1.1 0 1 0 2 0c.2 2.9.3 3.5 2.2 4.3zm-4.2-4.7c-7.5 0-12.8-1.1-13.1-1.6 0-.1.3-.3 1.9-.6h.2q0 .2 0 .4v.2c0 .1.1.2.2.2 4.4.5 8.1.7 11.1.7 6.8 0 10.2-.9 10.3-.9q.1 0 .1-.2v-.2q0-.1 0-.2h.2c1.7.3 2 .5 2 .6-.3.5-5.3 1.6-12.9 1.6z"/>
</svg>
