<svg xmlns="http://www.w3.org/2000/svg" viewBox="129.746 69.27001953125 315.5079919262877 436.37039947509766">
  <g>
    <svg
      data-layer-type="icon"
      xmlns="http://www.w3.org/2000/svg"
      version="1.1"
      x="199.746"
      y="139.27001953125"
      viewBox="0 -0.034662991762161255 493.77001953125 593.6046752929688"
      width="175.50799192628767"
      height="210.99371337890625"
      preserveAspectRatio="xMinYMin"
    >
      <path
        d="M450.89,443.83c-0.18-0.03-0.35-0.04-0.53-0.04h-4.23c-0.5-10.98-0.94-23.33-1.4-36.22c-1.5-42.28-3.21-90.19-8.01-117.33  c-0.27-1.53-1.53-2.69-3.08-2.84c-12.16-1.14-24.37-2.12-36.56-2.97l1.13-10.1c0.02-0.12,0.02-0.25,0.02-0.38  c0.12-46.59-0.33-65.76-0.8-86.05c-0.26-11.32-0.54-23.02-0.7-39.92c-0.02-1.65-1.2-3.06-2.83-3.37c-0.15-0.03-0.3-0.05-0.46-0.08  c7.5-6.57,13.76-15.45,18.61-26.52c5.06-11.55,7.98-23.88,10.81-35.82c0.29-1.2-0.32-2.44-1.45-2.96c-1.13-0.52-2.46-0.16-3.18,0.84  c-3.95,5.49-10.35,9.8-19.53,13.19c-3.49,1.28-7.15,2.38-10.7,3.44c-4.48,1.34-9.1,2.72-13.56,4.53  c-8.12,3.3-14.29,7.64-18.48,12.91c-0.79-1.46-1.53-2.89-2.02-4.34c-0.36-1.1-0.61-2.26-0.87-3.42c-0.65-2.97-1.4-6.34-3.89-8.89  c-3.83-3.91-9.52-3.81-14.84-2.95c-0.13-1.34-0.36-2.65-0.66-3.94c3.43,0.61,9.01,0.87,18.11,0.79c3.97-0.07,7.91,0.61,12.08,1.31  c3.06,0.51,6.23,1.04,9.43,1.26c0.97,0.07,1.93,0.13,2.89,0.13c1.57,0,3.12-0.16,4.67-0.66c3.26-1.07,5.66-3.66,6.11-6.62  c0.4-2.66-0.78-5.55-3.08-7.55c-1.89-1.64-4.2-2.49-6.2-3.1c-10.42-3.18-24.17-0.28-36.58,3.24c2.54-3.06,4.73-6.21,6.62-9.45  c0.1,0.01,0.2,0.05,0.31,0.05c0.28,0,0.55-0.04,0.83-0.14c6.68-2.26,13.77-2.46,21.28-2.68c1.97-0.06,3.93-0.11,5.89-0.21  c8.75-0.43,19.82-1.83,27.91-8.94c2.48-2.18,3.7-4.38,3.74-6.74c0.05-2.75-1.71-5.47-4.47-6.91c-2.18-1.14-4.52-1.38-6.73-1.47  c-13.87-0.58-25.54,4.49-36.58,11.55c6.65-9.4,12.59-20.36,14.88-32.52c0.58-3.05,1-6.64-0.22-10.1c-1.48-4.17-5.23-6.95-9.12-6.76  c-3.1,0.15-5.91,2-8.58,5.65c-6.68,9.11-6.53,17.79-6.39,26.19c0.08,4.73,0.16,9.62-0.96,14.71c-2.49,11.34-8.84,21.85-18.8,31.3  c-2.65-4.6-6.55-8.04-11-9.61c-4.49-1.55-9.43-0.95-13.21,1.28c3.4-9.38,2.21-19.5-3.2-26.07c-0.54-0.66-1.49-0.82-2.23-0.38  c-7.65,4.62-13.32,12.23-16.03,20.75c-2.27-7.16-5.63-13.76-9.51-18.9c-0.39-0.52-1.03-0.77-1.68-0.66  c-0.64,0.11-1.16,0.57-1.35,1.19c-2.45,7.92-4.85,16.39-4.97,25.22c-0.04,3.08,0.25,6.01,0.77,8.81c-3.54-0.83-6.94-0.51-9.62,0.96  c-3.89,2.16-5.73,6.28-6.79,9.22c-0.91,2.62-1.47,5.34-1.84,8.1c-0.24-0.47-0.46-0.95-0.72-1.41c-2.58-4.53-5.76-7.91-9.39-10.2  c9.76-9.46,16.37-23.03,18.33-34.52c0.11-0.64-0.15-1.29-0.67-1.67c-0.52-0.39-1.21-0.45-1.79-0.17  c-7.44,3.65-15.25,7.7-21.77,13.68c-2.62,2.4-4.84,4.99-6.67,7.67c0.26-4.31,0.17-8.69-0.69-12.98  c-2.04-10.23-8.81-18.54-17.25-21.16c-0.82-0.25-1.7,0.13-2.07,0.9c-5.18,10.79-4.44,24.11,1.43,34.51  c-2.73-0.83-5.55-1.44-8.38-2.03c-0.09-0.11-0.14-0.23-0.25-0.33c-3.68-3.29-7.48-6.69-12-9.15c-0.35-0.19-0.73-0.37-1.11-0.56  c2.3-7.55,3.52-15.49,3.65-23.39c0.01-0.04,0.03-0.07,0.04-0.11c0.02-0.17-0.01-0.32-0.04-0.48c0.05-5.6-0.43-11.16-1.44-16.52  c0-0.05,0.02-0.09,0.02-0.14c-0.01-0.25-0.08-0.48-0.19-0.69c-1.53-7.67-4.12-14.9-7.77-21.18c-0.28-0.48-0.77-0.79-1.32-0.85  c-0.55-0.05-1.09,0.15-1.46,0.57c-9.31,10.37-18.93,21.1-25.19,34c-6.81,14.03-8.09,28.77-3.7,40.74c-1.69,1.6-3.31,3.3-4.69,5.23  c-4.15,5.87-5.55,12.58-3.95,18.33c-3.18,1.41-5.98,3.66-7.91,6.5c-3.33,4.94-4.07,11.49-1.92,17.13c0.47,1.19,1.06,2.33,1.65,3.46  c0.53,1.02,1.07,2.03,1.47,3.09c0.47,1.28,0.77,2.67,1.08,4.15c0.24,1.15,0.49,2.3,0.81,3.41c-0.92,0.14-1.84,0.28-2.73,0.41  l-12.51-31.77c-1.11-2.81-2.57-5.23-4.25-7.39c1.34-4.57,3.4-7.78,5.44-10.81c2.83-4.21,5.76-8.56,6.21-16.26  c0.85-14.45-2.16-30.36-8.04-42.57c-0.25-0.52-0.74-0.88-1.31-0.96c-0.58-0.08-1.14,0.12-1.53,0.55  c-15.45,17.16-19.33,41.5-11,61.08c-3.62-2.28-7.5-4.22-11.34-6.12c-3.25-1.61-6.31-3.13-9.2-4.85c-1.45-0.86-3.04-1.78-4.85-2.82  l-0.31,0.58c-6.38-9.22-7.51-20.87-8.57-32.17c-0.35-3.77-0.72-7.68-1.28-11.39c-1.64-10.87-6.06-25.58-17.83-33.9  c-0.5-0.35-1.14-0.41-1.69-0.17c-0.56,0.24-0.94,0.76-1.02,1.36c-0.25,1.9-0.52,3.89-0.81,5.95c-2.25,16.1-5.05,36.14,1.93,50.64  c3.22,6.69,10.38,12.34,17.65,17.01c-1.95-0.15-3.85-0.18-5.52-0.19c-8.45-0.03-16.96,1.57-24.86,4.7  c-9.14,3.62-17.31,9.21-23.65,16.18c0,0,0,0,0,0c-0.64,0.71-0.59,1.8,0.12,2.44c0.33,0.3,0.75,0.45,1.16,0.45  c0.35,0,0.69-0.1,0.99-0.31c1.2-0.32,6.16-0.04,8.58,0.09c2.24,0.12,3.54,0.19,4.25,0.14c4.74-0.34,9.5-1.02,14.17-2  c7.22-1.53,14.28-3.81,20.99-6.78c0.2-0.09,0.73-0.35,1.49-0.72c8.97-4.39,12.17-5.59,13.22-5.75c0.37,0.14,0.78,0.09,1.17-0.06  c0.69,0.4,1.37,0.8,2.01,1.18c3.06,1.82,6.36,3.45,9.55,5.04c9.94,4.93,19.33,9.59,23.32,19.73l3.58,9.09  c-8.2-5.63-18.52-11.65-30.28-14.32c-14-3.18-27.63-0.81-37.4,6.5c-0.43,0.32-0.69,0.83-0.69,1.38c0,0.54,0.25,1.05,0.68,1.38  c13.16,10.06,27.39,15.21,41.74,15.21c4.24,0,8.5-0.45,12.74-1.36c2.03-0.43,3.93-1.19,5.76-1.92c3.52-1.4,6.55-2.61,9.53-1.21  c0.05,0.03,0.11,0.02,0.17,0.04l6.26,15.91c-15.63,2.54-24.41,4.66-24.74,4.74c-1.48,0.37-2.54,1.66-2.62,3.19  c-2.7,55.39-2.64,58.15-1.7,104.22l0.45,22.14l0.95,10.15c-26.81,1.58-42.83,2.98-43.38,3.03c-1.54,0.14-2.8,1.28-3.09,2.8  l-1.1,5.81c-4.24,34.21-5.51,100.95-6.19,147.85l-4.45,0.09c-0.16,0-0.31,0.02-0.47,0.04C5.07,449.78,0,455.5,0,460.82  c0,9.34,25.39,18.02,75.46,25.79c43.17,6.7,94.35,10.83,146.52,11.91l-0.7,7.24c-4.39,45.64-5.18,53.86-34.48,65.4l-16.49,6.5  c-2.96,1.16-5.22,5.06-4.76,8.18c0.34,2.29,2.04,3.89,4.34,4.07c30.86,2.44,61.13,3.66,90.61,3.66c29.49,0,58.18-1.22,85.87-3.66  c2.29-0.2,3.98-1.81,4.31-4.1c0.46-3.16-1.77-6.97-4.76-8.14l-16.49-6.5c-30.99-12.21-32.29-20.57-37.67-73.04  c46.44-1.51,91.15-5.46,129.03-11.51c48.43-7.73,72.98-16.41,72.98-25.79C493.77,455.44,488.58,449.66,450.89,443.83z M394.32,48.09  c0.64,0,1.3,0.01,1.95,0.04c1.61,0.07,3.27,0.22,4.54,0.89c0.99,0.52,1.7,1.46,1.69,2.23c-0.01,0.8-0.68,1.79-1.97,2.93  c-6.88,6.05-16.84,7.27-24.74,7.66c-1.92,0.09-3.85,0.15-5.79,0.21c-4.38,0.13-8.84,0.26-13.26,0.83  C368.62,54.45,380.22,48.09,394.32,48.09z M354.57,52.78c1.25-5.68,1.16-10.88,1.08-15.91c-0.14-8.23-0.25-15.34,5.39-23.04  c1.67-2.27,3.23-3.46,4.65-3.53c0.04,0,0.08,0,0.12,0c1.68,0,3.27,1.66,3.86,3.31c0.81,2.3,0.46,5.03,0.02,7.41  c-2.26,11.98-8.43,22.88-15.21,32.15C354.51,53.04,354.54,52.91,354.57,52.78z M340.61,84.97c11.46-3.33,25.85-6.77,35.57-3.81h0  c1.56,0.48,3.16,1.05,4.32,2.06c0.94,0.82,1.49,1.96,1.35,2.85c-0.15,1.01-1.22,2.02-2.6,2.47c-1.59,0.52-3.47,0.44-5.58,0.29  c-2.96-0.21-5.86-0.7-8.94-1.21c-4.08-0.68-8.29-1.38-12.58-1.38c-0.13,0-0.26,0-0.4,0c-6.97,0.07-11.4-0.09-14.21-0.32  C338.39,85.63,339.41,85.32,340.61,84.97z M407.29,115.95c-5.26,12-12.2,21.2-20.63,27.41c-7.9-1.39-15.74-2.69-23.44-3.81  c0.05-1.12,0-2.26-0.2-3.41c3.04-4.55,7.24-6.1,12.49-7.98c3.31-1.18,7.06-2.53,10.74-4.85c11.24-7.1,20.76-16.61,27.93-27.74  C412.33,102.51,410.16,109.41,407.29,115.95z M376.39,106.07c4.23-1.72,8.74-3.06,13.1-4.37c3.62-1.08,7.36-2.2,11.01-3.54  c2.98-1.1,5.68-2.3,8.16-3.6c-6.62,9.72-15.16,18.05-25.15,24.36c-3.2,2.02-6.51,3.21-9.72,4.35c-4.63,1.66-9.38,3.41-13.16,7.57  c-0.4-0.45-0.85-0.82-1.32-1.17c1.08-2.93,0.8-6.44-0.75-10.23C362.07,113.96,368.04,109.46,376.39,106.07z M356.48,134.03  c0.56,0.53,1.03,1.28,1.29,2.19c0,0.02,0.01,0.03,0.02,0.05c0,0.01,0.01,0.01,0.01,0.02c0.46,1.69,0.28,3.61,0.03,5.57  c-0.97,7.08-2.77,12.1-5.68,15.78c-2.6,3.28-7.06,6.1-11.69,5.76c0.19-2.85-0.7-5.91-2.61-8.65c-1.7-2.41-4.08-4.58-6.08-6.2  c0.05-0.07,0.12-0.14,0.17-0.21c0.69,0.14,1.39,0.23,2.12,0.23c2.9,0,6.01-1.07,8.89-3.11c1.83-1.26,3.41-2.72,4.95-4.14  c1.02-0.94,2.03-1.88,3.14-2.76c0.55-0.45,1.12-0.88,1.69-1.31C354.01,136.24,355.33,135.22,356.48,134.03z M284.12,120.07  c-1.5-4.67-2.59-8.82-3.35-12.77c0.29-0.23,0.62-0.45,1.02-0.63c1.06-0.49,2.3-0.72,3.67-0.95c0.65-0.13,1.3-0.23,1.9-0.32  c1.24-0.16,2.33-0.15,3.27,0.02c0.7,0.12,1.33,0.39,1.83,0.74C290.27,111.12,287.46,115.77,284.12,120.07z M296.53,109.78  c0.97,0.7,1.8,1.74,2.36,2.99c0.8,1.79,1.1,4.03,0.95,7.03c-0.25,4.59-1.5,9.22-3.61,13.42c-0.57,1.17-1.23,2.26-1.92,3.31  c-1.48-0.18-2.97-0.31-4.47-0.43c-0.01-0.04,0-0.07-0.02-0.11l-0.47-1.23c-1.11-2.93-2.2-5.9-3.25-8.88  C290.3,120.97,293.81,115.58,296.53,109.78z M287.25,141.09c3.26,0.15,6.63,0.58,9.88,1c3.36,0.43,6.83,0.88,10.29,1.04  c6.4,0.34,14.97-0.39,21.64-5.14c0.27,1.86,0.09,4.31-0.72,6.22c-0.19,0.48-0.34,0.72-0.46,0.89c-0.4,0.59-0.95,1.19-1.67,1.85  c-1.62,1.47-3.71,2.65-6.08,3.92c-7.05,3.77-14.6,7.53-22.6,8.45c-4.73,0.53-9.47-0.14-13.41-1.88c-2.86-1.22-5.21-3.01-6.99-5.32  c-1.79-2.32-3.02-5.89-1.48-8.24c1.51-2.27,5.12-2.8,7.9-2.86c0.33-0.01,0.66-0.01,0.98-0.01  C285.42,141.01,286.32,141.04,287.25,141.09z M282.87,171.79c0.21-2.47,1.03-4.9,1.9-7.47l0.12-0.35c0.03-0.08,0.01-0.16,0.03-0.24  c0.05-0.14,0.08-0.28,0.13-0.42c2.93,0.9,6.1,1.37,9.33,1.37c1.24,0,2.49-0.07,3.74-0.21c8.91-1.03,16.97-5.03,24.47-9.04  c1.97-1.06,3.71-2.13,5.35-3.33c2.43,1.91,4.47,3.89,5.68,5.6c1.27,1.83,2.29,4.61,1.35,6.96c-0.62,1.54-2.01,2.84-3.68,4.41  c-4.25,3.88-8.64,7.9-13.67,10.31c-4.86,2.28-10.47,3.2-16.17,4.13c-2.99,0.45-5.81,0.88-8.41,0.25c-2.14-0.5-4.14-1.75-5.62-2.77  c-1.1-0.78-2.25-1.64-3.02-2.69C283.18,176.73,282.65,174.42,282.87,171.79z M334.42,99.82c4.21-0.74,8.69-1.09,11.06,1.33  c1.45,1.49,1.97,3.86,2.53,6.38c0.29,1.33,0.59,2.66,1.01,3.93c0.72,2.16,1.78,4.1,2.8,5.98c0.57,1.04,1.13,2.08,1.63,3.14  c0.97,2.09,1.93,5.08,0.94,7.51c-0.15,0.38-0.35,0.75-0.66,1.18c-0.95,1.4-2.5,2.58-4.15,3.82c-0.62,0.47-1.24,0.94-1.82,1.41  c-1.18,0.95-2.3,1.97-3.4,2.99c-1.46,1.35-2.84,2.63-4.39,3.69c-1.05,0.74-3.47,2.2-5.99,2.16c0.6-2.96,0.57-6.59-0.68-9.32  c5.03-6.25,6.23-15.48,2.75-22.77c-0.76-1.54-1.77-2.96-2.91-4.29C333.81,104.65,334.25,102.26,334.42,99.82z M331.38,113.52  c2.86,5.98,1.53,13.72-3.15,18.41c0,0-0.01,0.01-0.01,0.01c-5.56,5.56-14.24,6.34-20.54,6.01c-2.57-0.12-5.18-0.42-7.77-0.74  c0.17-0.31,0.37-0.61,0.54-0.92c9.9-7.13,15.89-19.41,15.83-31.92c4.35-0.09,8.87,1.72,12.05,4.94  C329.6,110.57,330.63,112,331.38,113.52z M306.86,81.06c2.26-3.01,7.05-4.22,11.13-2.81c3.86,1.36,7.23,4.74,9.24,9.29  c1.36,3.05,2.06,6.38,2.09,9.87c0,1.88-0.24,3.73-0.59,5.56c-3.79-2.58-8.29-3.92-12.77-3.77c-0.21-1.53-0.47-3.03-0.87-4.46  c-0.72-2.57-2.08-6.16-5.42-7.73c-0.64-0.32-1.34-0.52-2.06-0.65c-0.13-1.67-0.36-3.46-0.81-5.25  C306.83,81.08,306.85,81.08,306.86,81.06z M305.51,91.41c0.76-0.09,1.36-0.02,1.91,0.26c1.11,0.52,1.98,1.98,2.68,4.47  c0.52,1.86,0.85,3.87,0.98,5.99c0.6,8.24-1.96,16.47-6.71,22.94c0.31-1.66,0.56-3.33,0.65-5c0.12-2.43,0.11-6.04-1.4-9.42  c-1.25-2.78-3.33-4.87-5.79-6.02c-1.19-2.17-3.4-3.75-6.15-4.27c2.93-3.14,6.36-5.76,10.1-7.66  C303.26,91.94,304.47,91.52,305.51,91.41z M275.49,96.33c0.3-1.36,0.91-2.71,1.77-4.07c0.16-0.17,0.32-0.34,0.43-0.56  c0.04-0.07,0.03-0.15,0.06-0.22c0.63-0.93,1.39-1.9,2.44-3.05c2.79-3.05,5.89-5.76,9.22-8.67c2.22-1.93,4.53-3.63,6.54-3.61  c2.27,0.05,4.19,2.05,5.13,4.09c0.09,0.19,0.17,0.39,0.24,0.6c0.68,1.78,0.95,3.73,1.12,5.97c-0.94,0.3-1.93,0.71-3.02,1.27  c-5.62,2.86-10.64,7.12-14.52,12.3c-0.04,0.06-0.05,0.13-0.09,0.19c-0.1,0.02-0.21,0.03-0.3,0.05c-1.58,0.26-3.27,0.59-4.89,1.33  c-0.39,0.18-0.83,0.43-1.29,0.72c-0.05-0.01-0.09-0.04-0.14-0.05c-0.24-0.05-0.49-0.06-0.73-0.04  C275.65,101.23,275.06,98.49,275.49,96.33z M276.68,112.98c0.95,3.86,2.2,8,3.8,12.64c1.17,3.44,2.46,6.85,3.74,10.24  c-0.27,0-0.54-0.02-0.82-0.01c-2.63,0.05-4.85,0.48-6.76,1.19C273.79,129.42,273.82,120.78,276.68,112.98z M256.77,96.52  c1.22-3.38,2.62-5.43,4.41-6.42c1.57-0.87,3.82-1.02,6.13-0.42c1.52,0.4,3,1.07,4.46,1.82c-0.59,1.23-1.08,2.48-1.36,3.78  c-0.86,4.35,0.59,8.74,3.56,11.22c-4.57,8.62-5.8,18.89-3.43,28.3c-0.78-0.65-1.58-1.25-2.39-1.85c-0.88-0.65-1.81-1.34-2.78-2.15  c-2-1.71-3.83-2.85-5.66-3.6c-0.02-0.04-0.02-0.09-0.04-0.13c-2.03-3.49-3.46-7.36-4.26-11.48  C254.2,109.12,254.67,102.52,256.77,96.52z M256.67,131.6c0.19,0.04,0.38,0.11,0.6,0.19c1.49,0.52,2.99,1.45,4.76,2.96  c1.07,0.9,2.08,1.65,3.03,2.35c2.22,1.65,3.89,2.97,5.45,5.47c-1.75,4.26-0.15,9.3,2.5,12.72c1.93,2.5,4.39,4.5,7.24,6.01  c-0.08,0.3-0.16,0.61-0.29,0.92c-1.3,3.45-4.91,6.92-8.05,7.74c-4.14,1.09-8.61,0.38-14.03-1c-2.87-0.75-5.83-1.63-7.81-3.47  c-2.29-2.12-3.28-5.44-4-8.71c-0.09-0.39-0.27-0.73-0.51-1.03c0.98-2.67,1.45-5.35,1.4-7.98c-0.03-2.88-0.77-5.75-2.08-8.3  c0.04-0.09,0.11-0.16,0.14-0.25c0.58-1.93,1.75-4.59,4.08-6.25C251.24,131.42,254.02,130.89,256.67,131.6z M235.92,94.87  c3.39,1.75,6.47,4.92,8.89,9.17c2.32,4.1,3.88,8.79,5.26,12.92c0.12,0.36,0.33,0.65,0.57,0.91c0.65,2.91,1.57,5.7,2.78,8.34  c-2.62,0.17-5.2,0.99-7.33,2.54c-1.98,1.41-3.6,3.42-4.79,5.86c-1.51-1.45-3.25-2.54-5.13-3.27c0.21-1.88,0.36-3.77,0.49-5.68  c0.26-3.52,0.59-7.89-0.65-12.02c-1.44-4.93-5.01-9.05-9.65-11.31c0.19-2.95,0.01-5.81-0.57-8.45  C228.89,92.84,232.62,93.12,235.92,94.87z M217.09,156.05c0.22-0.74,0.44-1.44,0.58-2.14c0.08,0,0.16,0.02,0.24,0.02  c6.53,0,12.12-4.84,14.79-9.86c1.16-2.2,2.04-4.66,2.65-7.44c1.5,0.8,2.86,1.98,3.93,3.54c1.56,2.19,2.47,4.98,2.49,7.68  c0.06,2.67-0.61,5.43-1.98,8.2c-1.2,2.43-2.99,4.87-5.16,7.04c-4.4,4.33-11.85,7.66-19.3,8.89  C217.26,168.28,219.77,161.65,217.09,156.05z M231.04,115.12c0.9,2.98,0.74,6.23,0.44,10.32c-0.17,2.44-0.34,4.95-0.7,7.37  c-0.5,3.5-1.37,6.39-2.66,8.82c-1.88,3.53-5.58,6.73-9.6,7.05c0.77-5.94,1.29-13.97-0.74-21.72c-0.64-2.5-1.65-4.91-2.83-7.26  c5.41-2.03,8.91-6.91,10.45-11.94C228.07,109.48,230.16,112.11,231.04,115.12z M197.84,80.28c0.06,0.01,0.12,0.02,0.18,0.03  c0.2,0.03,0.37,0.06,0.27,0.05c5.79,1.19,11.78,2.42,16.61,5.45c2.46,1.53,4.24,3.96,5.31,7.22c0.98,2.96,1.3,6.45,0.93,9.97  l-0.11,0.75c-0.64,4.57-3.64,9.99-8.73,11.4c-2.9-4.24-6.54-7.94-10.75-10.72c-7.58-4.96-16.98-7.11-25.9-6.05  c-0.11-2.34,0.02-4.33,0.39-6.14c0.58-3.08,1.97-5.46,4.4-7.47C185.13,80.84,191.81,79.12,197.84,80.28z M157.35,172.36  c2.47,0.99,5.06,1.35,7.61,1.35c0.38,0,0.75-0.05,1.13-0.07c0.14,1.72,0.53,3.4,1.16,4.96c-1.78,0.63-3.9,0.76-6.12,0.29  c-3.02-0.63-5.9-2.09-9.12-3.81c-3.13-1.66-6.36-3.38-8.76-5.75c-3.19-3.1-5.07-7.44-5.16-11.92c-0.07-3.64,1.12-7.23,3.25-10.23  c1.88,2.11,4.12,4.06,6.4,5.62c-0.26,0.9-0.46,1.81-0.55,2.71C146.49,162.57,150.75,169.64,157.35,172.36z M159.3,167.56  c-4.43-1.82-7.42-6.78-6.94-11.51c0.11-1.06,0.4-2.15,0.87-3.23c1.45-3.33,4.55-5.88,7.93-6.61c0.45,2.07,1.05,3.86,1.87,5.46  c2.42,4.75,6.88,7.78,11.42,7.78c0.09,0,0.18,0,0.27,0c2.48-0.08,4.68-1.01,6.62-1.83c1.23-0.52,2.38-1.01,3.54-1.28  c1.25-0.29,2.63-0.34,4.09-0.4c0.94-0.04,1.88-0.07,2.8-0.17c1.59-0.16,2.98-0.54,4.23-1.06c0.01,0.12,0.01,0.24,0.03,0.37  c0.2,1.51,0.57,2.94,1.08,4.23c-8.14,4.02-16.79,6.91-25.75,8.54C167.46,168.54,162.99,169.04,159.3,167.56z M172.58,130.05  c0.63,0.77,0.88,2,1.17,3.42c0.18,0.91,0.37,1.82,0.66,2.71c1.87,5.61,8.06,9.28,13.8,8.19c3.21-0.61,6.27-2.61,8.69-5.68  c0.28,0.34,0.57,0.63,0.82,0.89c0.2,0.21,0.36,0.37,0.49,0.52c-1.18,2.67-1.92,5.51-2.24,8.46c-0.04,0.04-0.09,0.07-0.12,0.11  c-1.05,1.4-3.34,1.82-4.62,1.95c-0.82,0.08-1.64,0.11-2.47,0.14c-1.64,0.06-3.34,0.13-5.07,0.53c-1.59,0.36-3.01,0.97-4.39,1.55  c-1.67,0.71-3.25,1.38-4.74,1.42c-3.1,0.09-5.63-2.43-6.92-4.94c-0.93-1.84-1.54-4.08-1.91-7c-0.13-1.15-0.23-2.32-0.34-3.56  c-0.25-3.36-0.41-6.37,0.16-9.12c0.42-1.95,1.26-3.62,2.37-4.87c0.41,1.11,1.04,2.12,1.87,2.95c0.51,0.51,1.08,0.96,1.66,1.39  C171.87,129.43,172.3,129.74,172.58,130.05z M172.54,121.78c1.13,1.61,2.44,3.05,3.94,4.33c4.95,4.17,12.06,6.21,18.61,5.6  c-0.62,1.28-1.26,2.38-1.93,3.33c-1.7,2.33-3.8,3.83-5.93,4.24c-3.21,0.62-6.85-1.55-7.9-4.71c-0.22-0.68-0.36-1.4-0.5-2.12  c-0.37-1.83-0.79-3.9-2.31-5.76c-0.64-0.71-1.34-1.24-1.96-1.71c-0.38-0.29-0.77-0.58-1.12-0.92  C172.91,123.51,172.58,122.69,172.54,121.78z M170.57,100.04c-0.11,0.09-0.23,0.16-0.33,0.26c-0.42,0.41-0.71,0.88-0.95,1.34  c-6.76,0.66-13.15,5.43-16.16,12.27c-0.17,0.39-0.28,0.78-0.42,1.17c-1.45-2.18-2.03-4.82-2.03-6.9c0-1.58,0.58-3.14,1.76-4.77  c1.33-1.84,3.29-3.6,5.18-5.3l0.92-0.83c2.86-2.58,8.26-5.04,12.09-3.95C170.39,95.34,170.38,97.55,170.57,100.04z M156.59,120.38  c0.23-1.45,0.67-2.94,1.3-4.41c2.01-4.56,5.91-7.91,10.27-8.92c-0.11,2.9,0.33,5.87,1.31,8.69c-0.71,0.8-1.23,1.75-1.59,2.78  c-0.32,0.05-0.64,0.15-0.94,0.33c-3.19,1.91-5.54,5.44-6.46,9.72c-0.47,2.31-0.53,4.61-0.44,7.04c-0.52,0.06-1.01,0.12-1.53,0.18  c-0.27-0.6-0.48-1.17-0.64-1.65C156.26,129.39,155.81,124.65,156.59,120.38z M172.25,172.95c9.67-1.75,18.99-4.88,27.74-9.28  c0.81,0.74,1.68,1.38,2.71,1.81c1.03,0.41,2.08,0.59,3.12,0.59c2.64,0,5.19-1.19,7.11-2.9c-0.42,2.84-1.75,5.87-3.21,8.2  c-0.45,0.72-0.92,1.41-1.5,2.08c-2.2,2.67-5.23,4.99-9.52,7.31c-4.15,2.23-7.84,3.51-11.25,3.93c-4.06,0.49-7.85-0.28-10.73-2.17  c-1.4-0.9-2.56-2.17-3.49-3.69c-0.12-0.36-0.3-0.7-0.58-0.99c-0.01-0.01-0.02-0.02-0.03-0.03c-0.79-1.46-1.26-3.07-1.38-4.72  C171.57,173.05,171.92,173.01,172.25,172.95z M211.76,155.79c-0.33,0.91-0.77,1.72-1.35,2.5c-1.31,1.78-3.84,3.15-5.77,2.39  c-0.71-0.29-1.3-0.77-1.8-1.45c-0.83-1.13-1.45-2.89-1.7-4.78c-0.17-1.45-0.22-2.83-0.16-4.08c0.19-3.23,1.01-6.32,2.43-9.16  c0.29-0.57,0.35-1.23,0.18-1.84c-0.46-1.69-1.46-2.71-2.19-3.44c-0.67-0.68-0.69-0.76-0.7-0.99l-0.02-0.53  c-0.03-0.87-0.05-1.76,0-2.54c0.23-0.53,0.45-1.08,0.66-1.62l0.42-1.05c0.14-0.32,0.21-0.67,0.21-1.01c0,0,0,0,0,0  c0-0.01,0-0.01,0-0.01c0,0,0,0,0,0c0-0.06,0-0.13-0.01-0.19c0,0,0-0.01,0-0.01c-0.05-0.63-0.32-1.24-0.81-1.69c0,0,0,0,0,0  c-0.06-0.06-0.12-0.11-0.18-0.16c-0.45-0.35-0.98-0.53-1.52-0.54c-0.16-0.01-0.34,0.01-0.5,0.03c-0.15,0.03-0.3,0.07-0.45,0.12  c-5.97,2.03-13.83,0.52-18.69-3.58c-2.03-1.73-3.64-3.88-4.79-6.4c-1.46-3.19-1.98-6.72-1.54-10.03c0.36-0.44,0.6-0.99,0.6-1.6  c0-0.06-0.03-0.11-0.03-0.17c0.03-0.02,0.04-0.06,0.08-0.08c0.24-0.08,0.58-0.16,1.07-0.22c8.09-1.22,16.64,0.65,23.48,5.13  c4.21,2.79,7.85,6.61,10.51,11.06c1.6,2.68,2.8,5.52,3.55,8.46c2.04,7.75,1.18,16.08,0.35,21.75c-0.02,0.11-0.03,0.24-0.06,0.35  c-0.03,0.11-0.06,0.23-0.07,0.34C212.67,152.87,212.3,154.42,211.76,155.79z M185.74,56.07c-4.22-0.35-8.56,0.66-12.09,2.97  c-0.5,0.33-1.13,0.65-1.8,1.01c-0.08,0.05-0.18,0.1-0.26,0.15c0.35-3.5,0.77-6.99,1.28-10.46c0.2-0.1,0.38-0.23,0.53-0.39  c3.45-3.9,8.63-6.09,13.82-5.96C187.08,47.63,186.54,51.88,185.74,56.07z M185.1,59.49c-0.37,1.56-0.85,3.08-1.31,4.61  c-2.85-1.01-6.19-1.65-9.74-1.3c0.54-0.29,1.06-0.58,1.49-0.85C178.34,60.11,181.76,59.28,185.1,59.49z M187.18,39.91  c-4.86-0.09-9.69,1.53-13.53,4.5c0.49-2.99,1.02-5.97,1.56-8.93c0.02-0.02,0.04-0.03,0.06-0.05c3.36-4.77,5.9-7.83,10.79-8.6  C186.8,31.1,187.14,35.48,187.18,39.91z M177.22,24.86c1.05-5.43,2.08-10.88,3.03-16.37c2.25,4.62,3.94,9.65,5.1,14.94  c-3.76,0.63-6.44,2.39-8.78,4.82C176.79,27.12,177.01,25.98,177.22,24.86z M176.43,10.22c-0.83,4.68-1.71,9.34-2.6,13.99  c-0.32,1.65-0.63,3.32-0.95,4.98c-2.09-2.31-5.09-4.11-8.1-4.65C168.39,19.55,172.37,14.82,176.43,10.22z M156.46,38.17  c1.77-3.64,3.85-7.1,6.11-10.46c0.14,0.04,0.27,0.09,0.42,0.09c3.94,0.05,7.94,3.35,8.97,6.3c-0.63,3.4-1.23,6.82-1.79,10.27  c-3.83-2.6-8.82-4.42-14.17-5.14C156.16,38.89,156.28,38.53,156.46,38.17z M154.56,42.55c4.79,0.52,10.79,2.27,15.03,5.74  c-0.71,4.74-1.31,9.52-1.72,14.34c-0.08,0.07-0.18,0.12-0.26,0.2c-4.17-4.27-10.14-6.74-16.13-6.56c-0.18,0.01-0.35,0.06-0.51,0.12  C151.54,51.84,152.72,47.19,154.56,42.55z M150.64,59.44c0.29,0.18,0.6,0.31,0.94,0.28c5.18-0.16,10.39,2.1,13.91,5.93  c-2.12,1.18-4.13,2.6-6.17,4.03c-2.31,1.66-4.64,3.37-6.87,5.21C150.9,70.11,150.29,64.89,150.64,59.44z M149.19,85.64  c3.33-4.68,8.33-8.27,13.32-11.86c3.45-2.43,7.02-4.94,10.9-5.69c4.7-0.88,9.27,0.87,12.28,2.49c2.19,1.19,4.2,2.66,6.17,4.27  c-5.37,0.43-10.59,2.46-14.74,5.94c-2.54,2.1-4.31,4.57-5.37,7.48c-6.13-1.59-13.19,2-16.71,5.18l-0.9,0.82  c-1.79,1.61-3.57,3.31-5.11,5.19c-0.23-0.07-0.46-0.14-0.71-0.14c-0.78,0-1.57,0.07-2.33,0.18  C144.67,94.56,146.67,89.2,149.19,85.64z M136.02,122.72c-1.55-4.06-1.02-8.79,1.38-12.34c1.73-2.56,4.47-4.51,7.59-5.38  c0.33-0.11,0.69-0.17,1.05-0.24c-0.34,1.14-0.55,2.28-0.55,3.44c0,4.17,1.58,9.55,5.81,12.97c-0.55,4.64-0.03,9.65,1.65,14.63  c0.92,2.74,2.18,4.88,3.69,6.48c-2.66,1.27-4.98,3.3-6.67,5.8c-2.44-1.8-4.83-4.15-6.49-6.47c-1.14-1.53-1.91-2.95-2.28-4.26  c-0.3-1.03-0.52-2.08-0.74-3.13c-0.33-1.6-0.68-3.24-1.29-4.9c-0.5-1.32-1.13-2.52-1.73-3.68  C136.93,124.68,136.41,123.71,136.02,122.72z M107.64,150.82c4.3-0.95,14.1-2.96,28.44-5.12c-2.12,3.57-3.26,7.69-3.17,11.83  c0.12,5.83,2.57,11.49,6.72,15.51c2.93,2.89,6.5,4.79,9.97,6.63c3.55,1.89,6.78,3.52,10.47,4.29c1.26,0.26,2.52,0.39,3.74,0.39  c2.17,0,4.22-0.44,6.05-1.23c1.14,1.47,2.5,2.76,4.04,3.75c3.14,2.06,7.04,3.15,11.2,3.15c0.98,0,1.97-0.06,2.98-0.18  c4.07-0.49,8.35-1.97,13.09-4.51c4.47-2.41,7.74-4.91,10.27-7.71c8.51-0.46,19.79-3.88,26.87-10.84c1.49-1.49,2.78-3.06,3.91-4.68  c0.9,2.62,2.17,5.19,4.35,7.2c2.86,2.66,6.52,3.77,10.04,4.69c3.57,0.91,7.29,1.69,11.01,1.69c1.89,0,3.78-0.2,5.63-0.69  c1.51-0.39,3.03-1.15,4.46-2.12c0,3.29,0.83,6.3,2.51,8.55c1.22,1.65,2.8,2.84,4.21,3.84c1.88,1.3,4.42,2.88,7.4,3.57  c1.37,0.33,2.72,0.46,4.07,0.46c2.19,0,4.38-0.33,6.65-0.68c5.78-0.95,11.75-1.92,17.27-4.52c5.75-2.75,10.43-7.03,15.21-11.4  c1.3-1.22,2.74-2.57,3.81-4.26c0.76,0.11,1.52,0.19,2.29,0.19c5.49,0,11.22-2.86,15.1-7.76c3.54-4.48,5.22-9.88,6.12-14.45  c9.03,1.32,18.2,2.82,27.51,4.51c0.17,15.44,0.42,26.48,0.67,37.17c0.47,20.22,0.92,39.32,0.8,85.68l-1.14,10.21  c-111.64-7.31-221.26-3.45-282.71,0l-0.95-10.14l-0.44-21.9C105.13,205.93,105.08,203.42,107.64,150.82z M53.52,458.44  c0.59-43.35,1.69-124.03,6.3-161.36l0.57-3.01c23.46-1.93,200.92-15.5,369.96-0.03c4.39,27.08,6.03,73.06,7.47,113.77  c0.61,17.24,1.19,33.52,1.93,46.89l-0.06,1.08c-18.96,4.28-148.11,30.24-386.19,3.5L53.52,458.44z M326.89,577.59l14.71,5.79  c-52.52,4.37-108.62,4.37-166.89-0.03l14.62-5.76c33.24-13.09,34.42-25.4,38.82-71.17l0.76-7.77c6.81,0.11,13.63,0.17,20.45,0.17  c11.87,0,23.72-0.17,35.47-0.49C290.22,551.03,291.93,563.83,326.89,577.59z M249.36,491.91c-139.16,0-236.7-21.58-242.33-31.04  c0.88-1.03,6.2-5.36,35.71-10.02l3.98-0.08c-0.04,2.6-0.07,5.14-0.1,7.57l-0.05,3.98c-0.02,1.78,1.3,3.28,3.06,3.48  c80.37,9.14,148.5,12.31,204.37,12.31c125.43,0,188.98-15.99,189.88-16.22c1.45-0.38,2.49-1.65,2.58-3.15l0.22-3.84  c0.01-0.13,0.01-0.26,0-0.39c-0.07-1.24-0.14-2.53-0.2-3.81h3.62c30.57,4.75,35.85,9.19,36.68,10.18  C481.7,470.57,388.74,491.91,249.36,491.91z"
        fill="#322F21"
      />
    </svg>
  </g>
  <g>
    <svg
      data-layer-type="text"
      xmlns="http://www.w3.org/2000/svg"
      x="209.93499359130863"
      y="411.27001953125"
      viewBox="0.690000057220459 5.769599914550781 155.1300048828125 24.370399475097656"
      width="155.1300048828125"
      height="24.370399475097656"
    >
      <g
        data-horizontal-grow="center"
        fill="#322F21"
        font-size="23.7062px"
        font-weight="400"
        font-style="normal"
        font-family="Yellowtail"
        dominant-baseline="hanging"
        text-transform="none"
      >
        <path
          d="M16.17 6.79L16.17 6.79Q16.53 6.00 16.68 6.00L16.68 6.00L16.74 6.00Q16.91 6.00 17.44 6.37Q17.98 6.74 17.98 7.06L17.98 7.06Q17.98 7.51 15.01 14.05Q12.05 20.59 11.62 21.39Q11.18 22.18 11.02 22.44Q10.86 22.71 10.58 23.03L10.58 23.03Q10.08 23.65 9.34 23.65L9.34 23.65Q9.04 23.65 8.81 23.72Q8.58 23.80 8.53 23.80L8.53 23.80Q8.16 23.80 8.16 23.63L8.16 23.63Q8.16 23.59 8.26 23.34Q8.36 23.09 10.90 17.72L10.90 17.72Q8.18 17.62 6.12 17.56L6.12 17.56Q4.14 20.05 2.53 22.77L2.53 22.77Q2.34 23.15 2.16 23.31Q1.99 23.46 1.69 23.46Q1.39 23.46 1.04 23.16Q0.69 22.85 0.69 22.44L0.69 22.44Q0.69 21.29 3.68 17.49L3.68 17.49Q2.28 17.49 1.90 17.56Q1.53 17.63 1.42 17.63L1.42 17.63Q1.11 17.63 1.11 17.10Q1.11 16.58 1.73 16.18Q2.35 15.78 3.39 15.78L3.39 15.78Q3.47 15.78 3.68 15.77L3.68 15.77Q4.40 15.73 5.15 15.71L5.15 15.71Q7.67 12.74 10.43 10.21Q13.18 7.67 15.20 6.66L15.20 6.66Q15.52 6.49 15.71 6.50Q15.90 6.51 16.17 6.79ZM15.36 8.43L15.36 8.43Q11.14 11.63 7.64 15.71L7.64 15.71Q9.69 15.75 11.78 15.88L11.78 15.88Q13.89 11.45 15.36 8.43ZM24.45 19.40L24.45 19.40Q24.67 19.40 24.71 19.74Q24.76 20.07 24.76 20.43Q24.76 20.79 24.69 20.93L24.69 20.93Q24.35 21.58 23.22 22.51Q22.09 23.44 21.07 23.44L21.07 23.44Q20.44 23.44 19.91 23.06Q19.38 22.69 19.38 21.75Q19.38 20.81 19.87 19.91L19.87 19.91Q17.00 23.51 15.37 23.51L15.37 23.51Q14.72 23.51 14.32 23.05Q13.93 22.58 13.93 22.09Q13.93 21.60 14.06 21.07Q14.20 20.55 14.36 20.13Q14.52 19.71 14.82 19.10Q15.13 18.49 15.28 18.21Q15.43 17.93 15.76 17.37Q16.09 16.81 16.63 15.86Q17.17 14.91 17.52 14.45Q17.87 13.99 18.21 13.99Q18.54 13.98 18.80 14.26Q19.05 14.54 19.05 14.71Q19.05 14.89 18.28 16.27L18.28 16.27Q15.99 20.42 15.99 21.10L15.99 21.10Q15.99 21.28 16.11 21.28L16.11 21.28Q16.67 21.28 18.88 18.87Q21.09 16.46 21.44 15.78Q21.78 15.11 22.11 14.64Q22.44 14.18 22.61 14.08L22.61 14.08Q23.10 13.75 23.89 13.73L23.89 13.73Q24.02 13.73 24.09 13.74Q24.16 13.75 24.25 13.94Q24.34 14.12 24.34 14.23L24.34 14.23Q24.24 14.55 23.42 15.95Q22.61 17.35 22.51 17.54L22.51 17.54Q21.15 20.36 21.15 21.22L21.15 21.22Q21.15 21.70 21.52 21.70L21.52 21.70Q22.19 21.61 23.14 20.63L23.14 20.63Q23.49 20.27 23.83 19.90Q24.17 19.53 24.25 19.46Q24.33 19.40 24.45 19.40ZM23.37 19.31L23.37 19.31L23.28 18.98Q23.28 18.89 23.37 18.83Q23.46 18.76 23.61 18.57Q23.75 18.37 23.82 18.31Q23.88 18.25 24.00 18.14Q24.12 18.03 24.20 17.96L24.20 17.96Q24.44 17.77 24.53 17.74Q24.62 17.71 24.85 17.64L24.85 17.64Q25.57 17.41 26.07 17.32L26.07 17.32Q29.02 12.39 30.81 9.60Q32.60 6.82 32.84 6.52Q33.09 6.23 33.73 6.00Q34.37 5.76 34.66 5.77Q34.96 5.78 34.96 6.03L34.96 6.03Q34.96 6.13 34.88 6.31Q34.81 6.48 33.61 8.36L33.61 8.36Q29.20 15.27 27.97 17.32L27.97 17.32L28.26 17.42Q30.94 16.92 31.05 16.92Q31.16 16.92 31.61 17.08Q32.05 17.24 32.19 17.26L32.19 17.26Q32.46 17.31 32.46 17.69Q32.46 18.08 32.21 18.13L32.21 18.13Q32.02 18.16 31.27 18.35Q30.52 18.54 30.07 18.65L30.07 18.65Q30.69 19.38 30.69 20.20Q30.69 21.02 29.96 22.37Q29.23 23.72 28.09 25.04Q26.96 26.36 25.71 27.53Q24.47 28.70 23.32 29.42Q22.18 30.14 21.63 30.14Q21.08 30.14 20.64 29.85Q20.21 29.55 20.21 28.97Q20.21 28.39 20.45 27.62Q20.69 26.85 20.96 26.21Q21.24 25.57 21.91 24.37L21.91 24.37Q22.63 23.07 24.50 19.93L24.50 19.93Q24.18 19.99 24.01 19.99Q23.83 19.99 23.68 19.91Q23.53 19.83 23.47 19.70L23.47 19.70Q23.37 19.47 23.37 19.31ZM26.63 24.30Q27.49 23.29 28.08 22.18Q28.67 21.08 28.67 20.38Q28.67 19.68 27.99 19.15L27.99 19.15L26.70 19.43Q26.51 19.76 26.10 20.46Q25.69 21.16 25.43 21.60Q25.16 22.04 24.76 22.73Q24.35 23.43 24.08 23.90Q23.81 24.38 23.48 24.97Q23.15 25.57 22.94 25.99Q22.72 26.41 22.53 26.83L22.53 26.83Q22.14 27.64 22.14 27.88Q22.14 28.13 22.27 28.13L22.27 28.13Q22.50 28.13 23.23 27.60Q23.95 27.07 24.86 26.19Q25.77 25.30 26.63 24.30ZM39.97 8.20L40.51 8.13L40.99 8.24Q41.09 8.24 41.17 8.35Q41.25 8.45 41.25 8.54Q41.25 8.64 41.01 9.04Q40.77 9.45 40.44 9.96Q40.11 10.48 40.09 10.52L40.09 10.52Q40.99 10.45 41.36 10.45Q41.74 10.45 41.88 10.50Q42.02 10.56 42.20 10.79Q42.38 11.03 42.53 11.15Q42.68 11.27 42.68 11.52Q42.68 11.76 42.38 11.93Q42.09 12.10 41.75 12.13L41.75 12.13Q39.07 12.40 38.79 12.41L38.79 12.41Q37.85 13.84 36.17 16.88Q34.48 19.92 34.38 20.69L34.38 20.69Q34.33 21.03 34.33 21.25L34.33 21.25Q34.33 21.70 34.81 21.70Q35.28 21.70 35.86 21.34Q36.44 20.97 36.93 20.55L36.93 20.55Q38.22 19.39 38.31 19.39L38.31 19.39Q38.62 19.39 38.62 20.43L38.62 20.43Q38.62 21.00 38.09 21.45L38.09 21.45Q36.93 22.46 36.13 22.97Q35.33 23.47 34.53 23.47L34.53 23.47Q34.36 23.47 34.21 23.44L34.21 23.44Q33.28 23.27 32.84 22.76Q32.41 22.26 32.42 21.40Q32.42 20.55 32.93 19.32Q33.43 18.10 34.19 16.73L34.19 16.73Q35.44 14.48 36.69 12.51L36.69 12.51L36.25 12.57Q34.91 12.72 34.69 12.72L34.69 12.72L34.59 12.72Q34.25 12.72 33.94 12.59Q33.63 12.46 33.63 12.26Q33.63 12.06 33.79 11.88Q33.96 11.69 34.00 11.59L34.00 11.59Q34.08 11.33 34.60 11.02Q35.13 10.71 35.40 10.69Q35.66 10.67 35.91 10.66Q36.16 10.65 36.47 10.64Q36.77 10.63 36.94 10.61L36.94 10.61L37.98 10.57Q38.95 9.11 39.32 8.69Q39.68 8.28 39.74 8.24Q39.80 8.20 39.97 8.20L39.97 8.20ZM41.91 16.00L41.43 16.73Q44.16 13.62 46.08 13.62L46.08 13.62Q46.56 13.62 46.86 13.91Q47.17 14.19 47.17 14.64Q47.17 15.09 46.53 16.15Q45.88 17.21 45.34 17.94L45.34 17.94Q45.05 18.31 44.69 18.31Q44.32 18.31 44.12 18.05Q43.92 17.78 43.92 17.42L43.92 17.42Q43.92 16.62 44.77 15.62L44.77 15.62L44.75 15.59Q44.37 15.63 42.86 17.10Q41.35 18.57 40.29 19.73Q39.23 20.89 37.99 22.56L37.99 22.56Q37.63 23.06 37.38 23.06Q37.13 23.06 36.72 22.90Q36.31 22.75 36.22 22.68Q36.14 22.61 36.14 22.44Q36.14 22.28 36.23 22.07Q36.32 21.85 36.57 21.46Q36.82 21.07 37.32 20.19Q37.83 19.31 38.89 17.52Q39.96 15.74 40.17 15.37L40.17 15.37Q40.61 14.61 40.88 14.26L40.88 14.26Q41.40 13.60 42.64 13.60L42.64 13.60Q42.92 13.60 42.92 13.95L42.92 13.95Q42.92 14.49 41.91 16.00L41.91 16.00ZM54.75 14.24L54.75 14.24Q55.63 14.24 55.63 14.84L55.63 14.84Q55.63 15.16 55.48 15.31Q55.33 15.46 54.84 16.32Q54.35 17.17 53.75 18.49Q53.15 19.82 52.98 20.75L52.98 20.75Q52.95 20.87 52.95 21.08L52.95 21.08Q52.95 21.72 53.29 21.72Q53.64 21.72 54.11 21.39Q54.59 21.06 54.96 20.68Q55.33 20.30 55.68 19.91Q56.04 19.52 56.11 19.46Q56.17 19.40 56.31 19.40L56.31 19.40Q56.53 19.40 56.58 19.74Q56.63 20.07 56.63 20.43Q56.63 20.79 56.56 20.93L56.56 20.93Q56.22 21.59 55.08 22.51Q53.94 23.44 53.01 23.44Q52.08 23.44 51.64 22.87Q51.20 22.31 51.20 21.62Q51.20 20.93 51.43 20.41L51.43 20.41Q50.47 21.66 49.22 22.53Q47.98 23.39 47.19 23.39Q46.41 23.39 45.91 22.92L45.91 22.92Q45.27 22.33 45.27 21.28Q45.27 20.23 45.74 19.17Q46.21 18.12 46.97 17.24Q47.74 16.37 48.65 15.65L48.65 15.65Q50.57 14.15 52.19 14.15L52.19 14.15Q52.82 14.15 53.21 14.35Q53.61 14.56 53.71 14.87L53.71 14.87Q53.99 14.46 54.18 14.35Q54.37 14.24 54.75 14.24ZM53.21 15.52L53.21 15.52Q51.23 15.52 49.11 17.72L49.11 17.72Q48.36 18.51 47.73 19.61Q47.10 20.71 47.10 21.11Q47.10 21.52 47.33 21.52L47.33 21.52Q47.66 21.52 49.14 20.24Q50.62 18.96 51.10 18.36L51.10 18.36Q51.64 17.69 53.21 15.52ZM59.18 15.34Q60.30 14.57 61.37 14.16Q62.45 13.74 63.24 13.74Q64.02 13.74 64.24 14.19L64.24 14.19Q64.69 13.67 65.37 13.64L65.37 13.64Q65.56 13.62 65.85 13.62Q66.14 13.62 66.21 13.70Q66.28 13.77 66.34 13.98Q66.40 14.19 66.41 14.21Q66.42 14.24 66.42 14.29Q66.42 14.34 66.36 14.42Q66.30 14.49 66.23 14.56Q66.15 14.63 66.14 14.64L66.14 14.64Q63.58 18.31 60.91 23.01L60.91 23.01Q63.66 20.57 65.84 19.50L65.84 19.50Q65.98 19.43 66.11 19.43L66.11 19.43Q66.29 19.43 66.35 19.67Q66.41 19.91 66.41 20.35Q66.41 20.79 66.36 20.89Q66.30 21.00 65.82 21.31Q65.33 21.62 64.56 22.12Q63.78 22.62 62.91 23.22L62.91 23.22Q60.83 24.67 59.49 26.26L59.49 26.26Q57.75 28.36 57.00 29.64L57.00 29.64Q56.72 30.14 56.06 30.14L56.06 30.14Q54.75 30.14 54.75 28.90L54.75 28.90Q54.75 27.64 55.99 26.32L55.99 26.32Q56.92 25.34 57.69 24.71Q58.47 24.09 58.54 24.01L58.54 24.01Q59.39 22.72 60.86 20.36L60.86 20.36Q59.61 21.67 58.44 22.44Q57.26 23.22 56.68 23.22L56.68 23.22Q54.91 23.22 54.91 21.70L54.91 21.70Q54.91 20.50 55.53 19.27Q56.14 18.05 57.10 17.08Q58.06 16.11 59.18 15.34ZM63.58 15.05L63.58 15.05Q62.24 15.34 61.06 16.00Q59.88 16.67 59.12 17.43Q58.35 18.18 57.80 18.98L57.80 18.98Q56.75 20.48 56.75 21.30L56.75 21.30Q56.75 21.50 56.85 21.50Q56.95 21.50 57.29 21.29Q57.63 21.08 58.26 20.58Q58.88 20.07 59.65 19.38L59.65 19.38Q61.42 17.74 63.58 15.05ZM66.77 20.72L66.77 20.72L66.75 20.90Q66.75 21.19 66.97 21.40Q67.19 21.61 67.38 21.61L67.38 21.61Q68.77 21.61 69.84 21.19Q70.91 20.78 70.91 20.36L70.91 20.36Q70.91 20.16 70.52 20.02Q70.13 19.87 69.21 19.66Q68.29 19.45 67.88 19.32Q67.46 19.20 67.22 19.10Q66.97 19.00 66.72 18.81L66.72 18.81Q66.18 18.43 66.18 17.67Q66.18 16.91 66.74 16.16Q67.30 15.42 68.14 14.89Q68.99 14.35 69.96 13.95L69.96 13.95Q71.88 13.15 73.19 13.15L73.19 13.15Q74.48 13.15 74.78 13.71L74.78 13.71Q74.87 13.90 74.87 14.15L74.87 14.15L74.87 14.23Q74.87 14.84 74.61 15.19Q74.35 15.53 73.79 15.81Q73.23 16.09 72.90 16.09Q72.57 16.09 72.48 16.04Q72.39 16.00 72.33 15.92Q72.28 15.85 72.19 15.81Q72.10 15.78 72.10 15.64Q72.10 15.50 72.22 15.35Q72.33 15.21 72.38 15.05L72.38 15.05Q71.62 15.08 70.78 15.40Q69.95 15.72 69.35 16.11Q68.76 16.51 68.36 16.87Q67.97 17.22 67.97 17.39Q67.97 17.56 68.50 17.66L68.50 17.66Q70.90 18.14 71.65 18.49Q72.40 18.83 72.69 19.27Q72.98 19.71 72.98 20.07L72.98 20.07Q72.98 20.81 72.39 21.47Q71.80 22.13 70.93 22.55L70.93 22.55Q69.07 23.46 67.69 23.46Q66.30 23.46 65.78 23.04Q65.25 22.62 65.25 22.04Q65.25 21.46 65.55 20.97Q65.84 20.48 66.30 20.48Q66.77 20.48 66.77 20.72ZM75.97 18.42L75.97 18.42L75.91 18.42Q75.68 18.44 75.45 18.29Q75.23 18.14 75.23 17.92Q75.23 17.70 75.35 17.52Q75.47 17.35 75.51 17.17Q75.55 16.98 75.93 16.63Q76.30 16.29 76.56 16.26Q76.83 16.23 77.49 16.18Q78.14 16.14 78.80 16.08Q79.46 16.03 80.08 16.03Q80.69 16.03 80.79 16.10Q80.89 16.16 81.01 16.41Q81.13 16.66 81.24 16.77Q81.34 16.89 81.34 17.15Q81.34 17.41 81.13 17.60Q80.92 17.79 80.66 17.83Q80.40 17.87 80.08 17.91Q79.75 17.95 79.35 17.99Q78.96 18.03 78.60 18.08Q78.24 18.13 77.77 18.22L77.77 18.22Q76.88 18.39 75.97 18.42ZM87.54 11.18L87.54 11.18L87.88 11.10Q87.95 11.10 87.95 11.23Q87.95 11.37 87.55 11.67Q87.15 11.97 86.59 11.97Q86.03 11.97 85.71 11.64Q85.39 11.32 85.39 10.80L85.39 10.80Q85.39 9.70 86.83 8.62Q88.26 7.54 90.36 6.88Q92.45 6.23 94.37 6.23L94.37 6.23Q97.19 6.23 98.56 7.14Q99.93 8.06 99.93 9.60L99.93 9.60Q99.93 11.56 97.20 13.40L97.20 13.40Q95.76 14.38 94.10 14.96L94.10 14.96Q95.92 15.15 97.01 16.14L97.01 16.14Q97.83 16.88 97.83 18.02Q97.83 19.17 96.74 20.36Q95.65 21.54 93.83 22.32Q92.01 23.10 90.11 23.10L90.11 23.10Q87.93 23.10 86.90 22.14L86.90 22.14Q86.43 21.70 86.43 21.36Q86.43 21.02 86.61 20.64L86.61 20.64Q85.76 22.17 85.37 22.94L85.37 22.94Q85.19 23.29 84.67 23.29Q84.14 23.29 83.85 23.01Q83.56 22.73 83.56 22.39Q83.56 22.04 83.67 21.77L83.67 21.77Q84.19 20.41 87.34 15.38Q90.50 10.35 91.20 9.55L91.20 9.55Q91.57 9.10 92.88 9.10L92.88 9.10Q93.40 9.10 93.40 9.33L93.40 9.33Q93.40 9.50 91.86 11.93Q90.32 14.36 90.25 14.48L90.25 14.48Q91.86 14.02 93.55 13.21Q95.23 12.41 96.49 11.39Q97.74 10.37 97.74 9.55L97.74 9.55Q97.74 8.20 94.80 8.20L94.80 8.20Q91.72 8.20 88.88 9.83L88.88 9.83Q88.17 10.23 87.80 10.57Q87.43 10.90 87.43 11.04Q87.43 11.18 87.54 11.18ZM89.63 16.71L89.63 16.71Q89.42 16.71 89.16 16.23L89.16 16.23Q88.06 17.99 86.86 20.14L86.86 20.14Q87.41 19.39 88.45 19.39L88.45 19.39Q89.14 19.39 89.14 19.56L89.14 19.56Q89.14 19.63 88.99 19.69L88.99 19.69Q88.53 19.86 88.53 20.21L88.53 20.21Q88.53 21.04 90.30 21.04L90.30 21.04Q92.69 21.04 94.64 19.38L94.64 19.38Q95.68 18.50 95.68 17.84L95.68 17.84Q95.68 17.43 94.84 16.95L94.84 16.95Q93.85 16.40 91.84 16.40L91.84 16.40Q90.44 16.40 90.04 16.56Q89.65 16.71 89.63 16.71ZM106.77 14.24L106.77 14.24Q107.65 14.24 107.65 14.84L107.65 14.84Q107.65 15.16 107.50 15.31Q107.35 15.46 106.86 16.32Q106.37 17.17 105.77 18.49Q105.17 19.82 105.00 20.75L105.00 20.75Q104.96 20.87 104.96 21.08L104.96 21.08Q104.96 21.72 105.31 21.72Q105.66 21.72 106.13 21.39Q106.61 21.06 106.98 20.68Q107.35 20.30 107.70 19.91Q108.06 19.52 108.12 19.46Q108.19 19.40 108.33 19.40L108.33 19.40Q108.55 19.40 108.60 19.74Q108.65 20.07 108.65 20.43Q108.65 20.79 108.58 20.93L108.58 20.93Q108.24 21.59 107.10 22.51Q105.96 23.44 105.03 23.44Q104.10 23.44 103.66 22.87Q103.22 22.31 103.22 21.62Q103.22 20.93 103.45 20.41L103.45 20.41Q102.49 21.66 101.24 22.53Q100.00 23.39 99.21 23.39Q98.42 23.39 97.93 22.92L97.93 22.92Q97.29 22.33 97.29 21.28Q97.29 20.23 97.76 19.17Q98.23 18.12 98.99 17.24Q99.76 16.37 100.67 15.65L100.67 15.65Q102.59 14.15 104.21 14.15L104.21 14.15Q104.84 14.15 105.23 14.35Q105.62 14.56 105.73 14.87L105.73 14.87Q106.01 14.46 106.20 14.35Q106.39 14.24 106.77 14.24ZM105.23 15.52L105.23 15.52Q103.25 15.52 101.13 17.72L101.13 17.72Q100.38 18.51 99.75 19.61Q99.12 20.71 99.12 21.11Q99.12 21.52 99.35 21.52L99.35 21.52Q99.67 21.52 101.16 20.24Q102.64 18.96 103.12 18.36L103.12 18.36Q103.66 17.69 105.23 15.52ZM108.34 9.50Q108.75 9.50 109.01 9.72Q109.27 9.93 109.27 10.52Q109.27 11.10 108.67 11.73Q108.08 12.35 107.30 12.35L107.30 12.35Q106.87 12.35 106.65 12.10Q106.42 11.84 106.42 11.54Q106.42 11.24 106.55 10.94Q106.68 10.64 106.90 10.31Q107.13 9.98 107.53 9.74Q107.93 9.50 108.34 9.50ZM105.45 10.48Q105.45 11.04 104.91 11.70Q104.36 12.35 103.66 12.35Q102.96 12.35 102.96 11.38L102.96 11.38Q102.96 10.77 103.40 10.10Q103.84 9.43 104.62 9.43L104.62 9.43Q104.94 9.43 105.20 9.68Q105.45 9.92 105.45 10.48ZM115.12 20.47Q115.72 20.08 115.89 19.94Q116.07 19.79 116.30 19.60Q116.53 19.40 116.68 19.40L116.68 19.40Q116.91 19.40 116.91 19.93Q116.91 20.45 116.40 21.06Q115.88 21.67 115.12 22.09Q114.35 22.51 113.48 22.83L113.48 22.83Q111.76 23.46 110.55 23.46Q109.34 23.46 108.37 22.67Q107.40 21.88 107.40 20.60Q107.40 19.32 108.03 18.04Q108.67 16.76 109.67 15.79Q110.67 14.83 112.00 14.23Q113.32 13.62 114.62 13.62L114.62 13.62Q115.24 13.62 115.74 13.98Q116.24 14.34 116.24 14.97Q116.24 15.59 115.62 16.47Q115.00 17.34 114.36 17.34L114.36 17.34Q113.62 17.34 113.62 16.63L113.62 16.63Q113.62 16.45 113.97 15.97Q114.32 15.50 114.32 15.33Q114.32 15.16 114.19 15.16L114.19 15.16Q113.55 15.16 112.82 15.60Q112.10 16.04 111.50 16.53Q110.90 17.02 110.37 17.62L110.37 17.62Q109.21 18.93 109.21 20.34L109.21 20.34Q109.21 20.90 109.58 21.32Q109.94 21.73 110.80 21.73Q111.67 21.73 112.54 21.52Q113.40 21.32 113.96 21.08Q114.53 20.85 115.12 20.47ZM116.42 23.31L116.42 23.31L115.68 23.15Q115.35 23.12 115.13 22.72L115.13 22.72Q115.07 22.62 115.05 22.59Q115.04 22.57 115.04 22.54Q115.04 22.50 115.06 22.44Q115.08 22.38 115.13 22.27Q115.17 22.16 115.21 22.04L115.21 22.04Q115.45 21.22 119.27 14.31Q123.09 7.40 123.27 7.18Q123.45 6.97 123.54 6.87Q123.62 6.77 123.73 6.70Q123.84 6.63 123.90 6.61Q123.95 6.59 124.10 6.53Q124.26 6.48 124.43 6.42Q124.60 6.37 124.78 6.27Q124.97 6.17 125.04 6.13Q125.11 6.09 125.22 6.09Q125.33 6.09 125.42 6.19Q125.52 6.30 125.52 6.46L125.52 6.46L125.52 6.54Q125.46 6.76 122.51 12.03Q119.55 17.29 119.28 17.79L119.28 17.79Q120.19 17.43 121.95 16.02Q123.71 14.61 123.72 14.15Q123.74 13.68 124.04 13.47Q124.34 13.27 124.69 13.27Q125.05 13.27 125.30 13.50Q125.55 13.74 125.53 14.28Q125.52 14.82 124.93 15.64Q124.34 16.47 123.52 17.18L123.52 17.18Q121.75 18.68 120.57 19.17L120.57 19.17Q121.51 21.70 122.72 21.70L122.72 21.70Q123.38 21.61 124.34 20.63L124.34 20.63Q124.70 20.27 125.04 19.90Q125.37 19.54 125.45 19.47Q125.52 19.40 125.66 19.40L125.66 19.40Q125.88 19.40 125.93 19.74Q125.97 20.07 125.97 20.43Q125.97 20.79 125.90 20.93L125.90 20.93Q125.57 21.58 124.43 22.51Q123.30 23.44 122.28 23.44L122.28 23.44Q121.55 23.44 121.12 23.16Q120.70 22.88 120.45 22.70Q120.21 22.51 119.95 22.20Q119.70 21.88 119.53 21.67Q119.36 21.46 119.15 21.09Q118.94 20.72 118.84 20.56Q118.75 20.41 118.57 20.05Q118.39 19.70 118.37 19.67L118.37 19.67Q118.16 20.09 117.91 20.59Q117.65 21.09 117.44 21.52Q117.23 21.95 117.06 22.30Q116.89 22.65 116.78 22.88Q116.67 23.12 116.66 23.13L116.66 23.13Q116.57 23.31 116.42 23.31ZM132.92 14.38L132.92 14.38Q132.92 15.14 132.30 15.72Q131.68 16.30 130.89 16.30L130.89 16.30Q130.64 16.30 130.56 16.18Q130.48 16.05 130.48 15.86Q130.48 15.66 130.52 15.48L130.52 15.48Q130.11 15.62 129.60 15.90Q129.09 16.19 128.35 16.76Q127.61 17.33 127.61 17.61L127.61 17.61Q127.61 17.70 127.88 17.70Q128.15 17.70 128.72 17.51Q129.28 17.32 129.51 17.32Q129.74 17.32 129.81 17.34L129.81 17.34Q129.96 17.42 130.13 17.69Q130.30 17.96 130.30 18.12Q130.30 18.28 130.00 18.53Q129.70 18.79 129.32 18.92Q128.94 19.05 128.81 19.12L128.81 19.12Q126.37 20.49 126.37 21.00L126.37 21.00Q126.37 21.90 127.91 21.90L127.91 21.90Q128.89 21.90 129.89 21.28L129.89 21.28Q130.73 20.74 131.41 20.19Q132.09 19.64 132.27 19.52Q132.44 19.39 132.54 19.39L132.54 19.39Q132.84 19.39 132.84 20.06Q132.84 20.73 132.76 20.95Q132.68 21.16 132.29 21.47L132.29 21.47Q129.82 23.49 127.61 23.49L127.61 23.49Q126.43 23.49 125.72 23.16L125.72 23.16Q124.42 22.57 124.42 21.36L124.42 21.36Q124.42 19.76 126.63 18.94L126.63 18.94Q126.19 18.74 126.07 18.43Q125.94 18.13 125.94 17.45Q125.94 16.77 126.57 16.01Q127.20 15.26 128.12 14.77L128.12 14.77Q130.15 13.67 131.75 13.67L131.75 13.67Q132.13 13.67 132.53 13.86Q132.92 14.04 132.92 14.38ZM136.75 16.00L136.26 16.73Q139.00 13.62 140.92 13.62L140.92 13.62Q141.39 13.62 141.70 13.91Q142.01 14.19 142.01 14.64Q142.01 15.09 141.36 16.15Q140.72 17.21 140.18 17.94L140.18 17.94Q139.89 18.31 139.52 18.31Q139.16 18.31 138.96 18.05Q138.75 17.78 138.75 17.42L138.75 17.42Q138.75 16.62 139.61 15.62L139.61 15.62L139.59 15.59Q139.20 15.63 137.69 17.10Q136.18 18.57 135.12 19.73Q134.07 20.89 132.83 22.56L132.83 22.56Q132.47 23.06 132.22 23.06Q131.97 23.06 131.56 22.90Q131.15 22.75 131.06 22.68Q130.97 22.61 130.97 22.44Q130.97 22.28 131.07 22.07Q131.16 21.85 131.41 21.46Q131.66 21.07 132.16 20.19Q132.66 19.31 133.73 17.52Q134.79 15.74 135.00 15.37L135.00 15.37Q135.44 14.61 135.72 14.26L135.72 14.26Q136.24 13.60 137.48 13.60L137.48 13.60Q137.76 13.60 137.76 13.95L137.76 13.95Q137.76 14.49 136.75 16.00L136.75 16.00ZM148.72 14.38L148.72 14.38Q148.72 15.14 148.10 15.72Q147.48 16.30 146.69 16.30L146.69 16.30Q146.44 16.30 146.36 16.18Q146.28 16.05 146.28 15.86Q146.28 15.66 146.32 15.48L146.32 15.48Q145.91 15.62 145.40 15.90Q144.89 16.19 144.15 16.76Q143.41 17.33 143.41 17.61L143.41 17.61Q143.41 17.70 143.68 17.70Q143.95 17.70 144.52 17.51Q145.08 17.32 145.31 17.32Q145.54 17.32 145.61 17.34L145.61 17.34Q145.76 17.42 145.93 17.69Q146.10 17.96 146.10 18.12Q146.10 18.28 145.80 18.53Q145.50 18.79 145.12 18.92Q144.74 19.05 144.61 19.12L144.61 19.12Q142.17 20.49 142.17 21.00L142.17 21.00Q142.17 21.90 143.71 21.90L143.71 21.90Q144.69 21.90 145.69 21.28L145.69 21.28Q146.53 20.74 147.21 20.19Q147.89 19.64 148.07 19.52Q148.24 19.39 148.34 19.39L148.34 19.39Q148.64 19.39 148.64 20.06Q148.64 20.73 148.56 20.95Q148.48 21.16 148.09 21.47L148.09 21.47Q145.62 23.49 143.41 23.49L143.41 23.49Q142.23 23.49 141.52 23.16L141.52 23.16Q140.22 22.57 140.22 21.36L140.22 21.36Q140.22 19.76 142.43 18.94L142.43 18.94Q141.99 18.74 141.87 18.43Q141.74 18.13 141.74 17.45Q141.74 16.77 142.37 16.01Q143.00 15.26 143.92 14.77L143.92 14.77Q145.95 13.67 147.55 13.67L147.55 13.67Q147.93 13.67 148.33 13.86Q148.72 14.04 148.72 14.38ZM155.82 10.33L155.82 10.33Q155.82 10.98 155.20 11.65Q154.59 12.32 153.92 12.32Q153.26 12.32 153.26 11.62Q153.26 10.93 153.84 10.30Q154.43 9.67 155.13 9.67L155.13 9.67Q155.44 9.67 155.63 9.84Q155.82 10.01 155.82 10.33ZM153.94 20.43L153.94 20.43Q153.94 20.78 153.87 20.93L153.87 20.93Q153.30 22.09 152.06 22.80Q150.83 23.51 149.91 23.51Q149.00 23.51 148.34 22.90Q147.68 22.28 147.68 21.65Q147.68 21.01 148.31 19.79Q148.95 18.58 149.59 17.55Q150.22 16.52 150.22 16.43Q150.22 16.34 149.99 16.09Q149.75 15.84 149.75 15.71Q149.75 15.59 150.23 15.08Q150.71 14.56 151.40 14.06Q152.09 13.55 152.45 13.55Q152.82 13.55 153.11 13.88Q153.40 14.20 153.40 14.47Q153.40 14.74 150.64 19.48L150.64 19.48Q150.61 19.55 150.45 19.79Q150.29 20.03 150.21 20.18Q150.12 20.34 150.00 20.56L150.00 20.56Q149.77 21.02 149.77 21.33L149.77 21.33Q149.77 21.73 150.31 21.73Q150.84 21.73 151.41 21.36Q151.98 21.00 152.40 20.56L152.40 20.56Q153.49 19.39 153.64 19.39L153.64 19.39Q153.94 19.39 153.94 20.43Z"
          transform="translate(0, 0)"
        />
      </g>
    </svg>
  </g>
  <g>
    <svg
      data-layer-type="text"
      xmlns="http://www.w3.org/2000/svg"
      x="202.53998065185547"
      y="370.27001953125"
      viewBox="1.7400000095367432 9.970000267028809 169.9199981689453 28.419998168945312"
      width="169.9199981689453"
      height="28.419998168945312"
    >
      <g
        data-horizontal-grow="center"
        fill="#322F21"
        font-size="38.7759px"
        font-weight="700"
        font-style="normal"
        font-family="Cinzel"
        dominant-baseline="hanging"
        text-transform="uppercase"
      >
        <path
          d="M23.46 10.16L23.46 10.16Q23.46 10.16 23.46 10.33Q23.46 10.51 23.46 10.51L23.46 10.51L8.18 37.85L1.74 37.85L1.74 37.50L15.94 12.29L2.29 12.29L2.29 10.66L19.35 10.66Q20.12 10.66 21.00 10.59Q21.87 10.51 22.55 10.39Q23.23 10.28 23.46 10.16ZM4.46 36.22L23.03 36.22L22.80 37.85L4.46 37.85L4.46 36.22ZM24.16 30.05L24.55 30.05L23.15 37.85L16.05 37.85L16.56 36.60L17.18 36.22Q19.74 36.22 21.58 34.53Q23.42 32.84 24.16 30.05L24.16 30.05ZM6.59 12.18L6.59 12.29Q4.77 12.33 3.72 13.40Q2.68 14.46 2.68 16.29L2.68 16.29L2.68 16.75L2.29 16.75L2.29 12.18L6.59 12.18ZM2.29 11.09L2.29 9.97Q2.68 10.12 3.47 10.28Q4.27 10.43 5.23 10.55Q6.20 10.66 7.02 10.66L7.02 10.66L2.29 11.09ZM29.78 10.70L35.60 10.70L35.60 27.76Q35.60 30.52 36.51 32.53Q37.42 34.55 39.11 35.64Q40.79 36.72 43.12 36.72L43.12 36.72Q45.48 36.72 47.21 35.69Q48.94 34.67 49.87 32.77Q50.80 30.87 50.80 28.27L50.80 28.27L50.80 10.70L53.59 10.70L53.59 28.03Q53.59 31.21 52.25 33.54Q50.91 35.87 48.41 37.13Q45.91 38.39 42.38 38.39L42.38 38.39Q38.27 38.39 35.44 37.13Q32.61 35.87 31.20 33.56Q29.78 31.25 29.78 28.07L29.78 28.07L29.78 10.70ZM27.10 10.70L29.90 10.70L29.90 13.03L29.78 13.03Q29.78 12.18 29.18 11.63Q28.58 11.09 27.72 11.09L27.72 11.09Q27.72 11.09 27.41 11.09Q27.10 11.09 27.10 11.09L27.10 11.09L27.10 10.70ZM35.52 10.70L38.27 10.70L38.27 11.09Q38.27 11.09 37.96 11.09Q37.65 11.09 37.65 11.09L37.65 11.09Q36.80 11.09 36.20 11.63Q35.60 12.18 35.60 13.03L35.60 13.03L35.52 13.03L35.52 10.70ZM48.12 10.70L50.91 10.70L50.91 13.03L50.80 13.03Q50.80 12.18 50.20 11.63Q49.59 11.09 48.74 11.09L48.74 11.09Q48.74 11.09 48.43 11.09Q48.12 11.09 48.12 11.09L48.12 11.09L48.12 10.70ZM53.51 10.70L56.26 10.70L56.26 11.09Q56.26 11.09 55.95 11.09Q55.64 11.09 55.64 11.09L55.64 11.09Q54.79 11.09 54.19 11.63Q53.59 12.18 53.59 13.03L53.59 13.03L53.51 13.03L53.51 10.70ZM84.92 26.52L85.23 26.52L85.58 33.19Q84.73 34.63 83.29 35.79Q81.86 36.95 79.72 37.67Q77.59 38.39 74.68 38.39L74.68 38.39Q69.95 38.35 66.40 36.66Q62.86 34.98 60.92 31.84Q58.98 28.69 58.98 24.23L58.98 24.23Q58.98 19.89 60.88 16.73Q62.78 13.57 66.33 11.87Q69.87 10.16 74.80 10.16L74.80 10.16Q77.90 10.16 80.36 10.78Q82.83 11.40 84.49 12.29L84.49 12.29L84.53 18.92L84.18 18.92Q83.14 15.08 80.77 13.44Q78.40 11.79 75.23 11.79L75.23 11.79Q72.12 11.79 69.91 13.30Q67.70 14.81 66.50 17.57Q65.30 20.32 65.30 24.16L65.30 24.16Q65.30 28.00 66.44 30.79Q67.59 33.58 69.70 35.13Q71.81 36.68 74.68 36.76L74.68 36.76Q77.67 36.76 79.72 35.79Q81.78 34.82 83.04 32.57Q84.30 30.32 84.92 26.52L84.92 26.52ZM99.03 25.05L103.38 21.13L113.54 35.05Q114.43 36.22 115.36 36.82Q116.29 37.42 117.49 37.46L117.49 37.46L117.49 37.85L114.31 37.85Q113.88 37.85 112.90 37.81Q111.91 37.77 110.67 37.50Q109.43 37.22 108.17 36.55Q106.91 35.87 105.97 34.63L105.97 34.63Q105.78 34.36 105.20 33.58Q104.62 32.80 103.84 31.72Q103.07 30.63 102.23 29.49Q101.40 28.35 100.66 27.34Q99.93 26.33 99.48 25.69Q99.03 25.05 99.03 25.05L99.03 25.05ZM109.70 10.97L113.11 10.97L101.44 24.82L99.03 25.05L109.70 10.97ZM115.67 10.70L115.82 10.70L115.82 11.05L115.67 11.05Q114.39 11.05 113.28 11.57Q112.18 12.10 111.40 12.95L111.40 12.95L108.26 12.87Q108.73 12.21 108.42 11.63Q108.11 11.05 107.33 11.05L107.33 11.05L106.94 11.05L106.94 10.70L115.67 10.70ZM91.98 10.70L97.79 10.70L97.79 37.85L91.98 37.85L91.98 10.70ZM91.98 35.01L92.09 35.01L92.09 37.85L88.99 37.85L88.99 37.46Q89.03 37.46 89.24 37.46Q89.46 37.46 89.49 37.46L89.49 37.46Q90.50 37.46 91.22 36.74Q91.94 36.02 91.98 35.01L91.98 35.01ZM92.09 10.70L92.09 13.53L91.98 13.53Q91.94 12.52 91.22 11.81Q90.50 11.09 89.49 11.09L89.49 11.09Q89.46 11.09 89.24 11.09Q89.03 11.09 88.99 11.09L88.99 11.09L88.99 10.70L92.09 10.70ZM97.68 37.85L97.68 35.01L97.79 35.01Q97.83 36.02 98.55 36.74Q99.27 37.46 100.27 37.46L100.27 37.46Q100.31 37.46 100.53 37.46Q100.74 37.46 100.78 37.46L100.78 37.46L100.78 37.85L97.68 37.85ZM97.79 13.53L97.68 13.53L97.68 10.70L100.78 10.70L100.78 11.09Q100.74 11.09 100.53 11.09Q100.31 11.09 100.27 11.09L100.27 11.09Q99.27 11.09 98.55 11.81Q97.83 12.52 97.79 13.53L97.79 13.53ZM121.33 10.70L127.15 10.70L127.15 37.85L121.33 37.85L121.33 10.70ZM127.03 36.18L137.38 36.18L138.31 37.85L127.03 37.85L127.03 36.18ZM127.03 23.65L135.95 23.65L135.95 25.28L127.03 25.28L127.03 23.65ZM127.03 10.70L137.85 10.70L137.85 12.37L127.03 12.37L127.03 10.70ZM139.83 29.90L140.21 29.90L138.43 37.85L130.83 37.85L132.23 36.18Q134.16 36.18 135.64 35.42Q137.11 34.67 138.16 33.25Q139.21 31.84 139.83 29.90L139.83 29.90ZM132.26 25.20L135.95 25.20L135.95 28.93L135.56 28.93L135.56 28.62Q135.56 27.18 134.63 26.25Q133.70 25.32 132.26 25.28L132.26 25.28L132.26 25.20ZM135.56 20.01L135.95 20.01L135.95 23.73L132.26 23.73L132.26 23.65Q133.70 23.61 134.63 22.66Q135.56 21.71 135.56 20.28L135.56 20.28L135.56 20.01ZM133.51 12.25L137.85 12.25L137.85 16.79L137.46 16.79L137.46 16.32Q137.46 14.54 136.39 13.46Q135.33 12.37 133.51 12.33L133.51 12.33L133.51 12.25ZM137.85 10.00L137.85 10.00L137.85 11.13L133.12 10.70Q133.97 10.70 134.92 10.59Q135.87 10.47 136.68 10.31Q137.50 10.16 137.85 10.00ZM121.33 35.01L121.45 35.01L121.45 37.85L118.34 37.85L118.34 37.46Q118.34 37.46 118.60 37.46Q118.85 37.46 118.85 37.46L118.85 37.46Q119.86 37.46 120.57 36.74Q121.29 36.02 121.33 35.01L121.33 35.01ZM121.45 10.70L121.45 13.53L121.33 13.53Q121.29 12.52 120.57 11.81Q119.86 11.09 118.85 11.09L118.85 11.09Q118.85 11.09 118.60 11.09Q118.34 11.09 118.34 11.09L118.34 11.09L118.34 10.70L121.45 10.70ZM151.11 10.70L151.11 10.70L156.11 10.70Q157.86 10.70 159.52 11.09Q161.19 11.48 162.49 12.33Q163.79 13.18 164.56 14.58Q165.34 15.98 165.34 18.03L165.34 18.03Q165.34 19.66 164.66 21.27Q163.98 22.88 162.59 24.02Q161.19 25.17 158.98 25.40L158.98 25.40Q160.22 25.79 161.25 26.79Q162.28 27.80 162.94 28.81L162.94 28.81Q162.98 28.89 163.38 29.51Q163.79 30.13 164.39 31.04Q164.99 31.95 165.65 32.88Q166.31 33.81 166.85 34.51L166.85 34.51Q167.71 35.56 168.40 36.20Q169.10 36.84 169.88 37.13Q170.65 37.42 171.66 37.46L171.66 37.46L171.66 37.85L167.86 37.85Q165.77 37.85 164.06 37.48Q162.35 37.11 161.04 36.22Q159.72 35.32 158.75 33.81L158.75 33.81Q158.44 33.35 158.07 32.63Q157.70 31.91 157.31 31.10Q156.93 30.28 156.56 29.53Q156.19 28.77 155.92 28.15Q155.65 27.53 155.53 27.18L155.53 27.18Q155.03 25.94 154.35 25.32Q153.67 24.70 152.89 24.58L152.89 24.58L152.89 24.20Q153.01 24.20 153.36 24.20Q153.71 24.20 154.10 24.20L154.10 24.20Q155.14 24.20 156.13 23.77Q157.12 23.34 157.90 22.37Q158.67 21.40 158.98 19.70L158.98 19.70Q159.06 19.35 159.12 18.88Q159.18 18.42 159.14 17.84L159.14 17.84Q159.02 15.05 157.74 13.75Q156.46 12.45 154.56 12.41L154.56 12.41Q154.02 12.37 153.38 12.39Q152.74 12.41 152.21 12.41Q151.69 12.41 151.50 12.41L151.50 12.41Q151.50 12.37 151.40 11.96Q151.30 11.56 151.21 11.13Q151.11 10.70 151.11 10.70ZM145.80 10.70L151.61 10.70L151.61 37.85L145.80 37.85L145.80 10.70ZM145.80 35.01L145.91 35.01L145.91 37.85L142.81 37.85L142.81 37.46Q142.85 37.46 143.06 37.46Q143.28 37.46 143.32 37.46L143.32 37.46Q144.32 37.46 145.04 36.74Q145.76 36.02 145.80 35.01L145.80 35.01ZM145.91 10.70L145.91 13.53L145.80 13.53Q145.76 12.52 145.04 11.81Q144.32 11.09 143.32 11.09L143.32 11.09Q143.28 11.09 143.06 11.09Q142.85 11.09 142.81 11.09L142.81 11.09L142.81 10.70L145.91 10.70ZM151.50 37.85L151.50 35.01L151.61 35.01Q151.61 36.02 152.35 36.74Q153.09 37.46 154.10 37.46L154.10 37.46Q154.17 37.46 154.37 37.46Q154.56 37.46 154.56 37.46L154.56 37.46L154.56 37.85L151.50 37.85Z"
          transform="translate(0, 0)"
        />
      </g>
    </svg>
  </g>
</svg>
